<?xml version="1.0" encoding="UTF-8"?>
<svg version="1.1" xmlns="http://www.w3.org/2000/svg" width="230" height="230">
<path d="M0 0 C75.9 0 151.8 0 230 0 C230 75.9 230 151.8 230 230 C154.1 230 78.2 230 0 230 C0 154.1 0 78.2 0 0 Z " fill="#402C79" transform="translate(0,0)"/>
<path d="M0 0 C75.9 0 151.8 0 230 0 C230 75.9 230 151.8 230 230 C154.1 230 78.2 230 0 230 C0 154.1 0 78.2 0 0 Z M34 44 C23.0475533 56.728044 15.90338377 70.93398877 11 87 C10.52046875 88.50240234 10.52046875 88.50240234 10.03125 90.03515625 C3.11878366 115.86089856 8.32195011 144.68196652 21.01953125 167.80859375 C37.23211751 194.9574808 61.77057724 212.63719338 92.15478516 220.56201172 C99.61447221 222.28017674 106.99515255 222.38505439 114.625 222.375 C115.62128418 222.37468277 115.62128418 222.37468277 116.63769531 222.37435913 C127.03335674 222.34132472 136.16501744 221.46045683 146 218 C147.155 217.649375 148.31 217.29875 149.5 216.9375 C162.93031454 212.62061318 175.56775894 205.51512097 186 196 C186.75144287 195.3201001 186.75144287 195.3201001 187.51806641 194.62646484 C203.79950511 179.71362501 215.32670416 160.73402654 220 139 C220.24834595 138.1032959 220.24834595 138.1032959 220.50170898 137.18847656 C222.33842677 130.11601058 222.3453542 123.14938916 222.3125 115.875 C222.30404053 113.93330933 222.30404053 113.93330933 222.29541016 111.95239258 C222.18065391 102.92812031 221.69203156 94.66752584 219 86 C218.80664062 85.37448242 218.61328125 84.74896484 218.4140625 84.10449219 C210.78862682 60.15732921 195.50470475 38.38972183 174 25 C172.99839844 24.35417969 171.99679688 23.70835938 170.96484375 23.04296875 C164.19086785 18.89935542 157.36029086 15.78393305 149.875 13.125 C149.07658691 12.83882812 148.27817383 12.55265625 147.45556641 12.2578125 C107.09114768 -1.40222264 61.9613676 12.75222888 34 44 Z " fill="#FBFAFB" transform="translate(0,0)"/>
<path d="M0 0 C3.03867071 0.03387053 4.50384573 0.15593318 7.25 1.5625 C8.6875 3.25 8.6875 3.25 8.6875 6.25 C9.3475 6.25 10.0075 6.25 10.6875 6.25 C10.6875 4.93 10.6875 3.61 10.6875 2.25 C12.6875 0.25 12.6875 0.25 15.1484375 -0.015625 C16.11007813 -0.01046875 17.07171875 -0.0053125 18.0625 0 C19.01898438 -0.00515625 19.97546875 -0.0103125 20.9609375 -0.015625 C23.74876058 0.25596808 25.38463069 0.67269225 27.6875 2.25 C28.64820434 5.13211302 28.79331883 6.94850044 28.75 9.9375 C28.74097656 10.74574219 28.73195312 11.55398437 28.72265625 12.38671875 C28.71105469 13.00160156 28.69945312 13.61648437 28.6875 14.25 C26.7075 15.24 26.7075 15.24 24.6875 16.25 C24.6875 17.24 24.6875 18.23 24.6875 19.25 C25.6775 19.91 26.6675 20.57 27.6875 21.25 C29.46310507 25.36192754 29.89962696 28.79533388 29.6875 33.25 C29.0275 33.25 28.3675 33.25 27.6875 33.25 C28.0175 33.91 28.3475 34.57 28.6875 35.25 C29.6775 34.92 30.6675 34.59 31.6875 34.25 C32.6775 35.24 33.6675 36.23 34.6875 37.25 C34.625625 36.30125 34.56375 35.3525 34.5 34.375 C34.5928125 32.828125 34.5928125 32.828125 34.6875 31.25 C35.6775 30.59 36.6675 29.93 37.6875 29.25 C37.6875 30.57 37.6875 31.89 37.6875 33.25 C38.3475 33.25 39.0075 33.25 39.6875 33.25 C39.60371094 34.16523437 39.51992187 35.08046875 39.43359375 36.0234375 C39.33175781 37.21195313 39.22992188 38.40046875 39.125 39.625 C39.02058594 40.80835938 38.91617188 41.99171875 38.80859375 43.2109375 C38.44596404 46.16898631 38.44596404 46.16898631 39.6875 48.25 C36.0575 48.25 32.4275 48.25 28.6875 48.25 C28.0275 49.9 27.3675 51.55 26.6875 53.25 C26.1925 54.24 26.1925 54.24 25.6875 55.25 C25.0275 55.25 24.3675 55.25 23.6875 55.25 C23.6875 57.56 23.6875 59.87 23.6875 62.25 C24.3475 62.25 25.0075 62.25 25.6875 62.25 C25.6875 62.91 25.6875 63.57 25.6875 64.25 C21.2325 65.24 21.2325 65.24 16.6875 66.25 C16.0275 65.26 15.3675 64.27 14.6875 63.25 C13.6975 63.25 12.7075 63.25 11.6875 63.25 C11.1925 65.23 11.1925 65.23 10.6875 67.25 C10.0275 66.26 9.3675 65.27 8.6875 64.25 C5.82417247 64.64494173 4.91240611 64.95312394 3.125 67.3125 C2.650625 67.951875 2.17625 68.59125 1.6875 69.25 C0.6975 69.25 -0.2925 69.25 -1.3125 69.25 C-0.6525 73.21 0.0075 77.17 0.6875 81.25 C1.3475 81.25 2.0075 81.25 2.6875 81.25 C3.1825 79.765 3.1825 79.765 3.6875 78.25 C5.1725 77.755 5.1725 77.755 6.6875 77.25 C8.12160153 81.03819273 7.19759497 83.31521279 5.75 87 C5.36972656 87.98484375 4.98945312 88.9696875 4.59765625 89.984375 C4.29730469 90.73203125 3.99695313 91.4796875 3.6875 92.25 C3.11 91.59 2.5325 90.93 1.9375 90.25 C-0.30903977 87.80709077 -0.30903977 87.80709077 -4.3125 88.25 C-4.9725 89.57 -5.6325 90.89 -6.3125 92.25 C-6.6425 92.25 -6.9725 92.25 -7.3125 92.25 C-7.3125 90.6 -7.3125 88.95 -7.3125 87.25 C-7.97636719 87.27320313 -8.64023438 87.29640625 -9.32421875 87.3203125 C-18.09457381 87.49956063 -18.09457381 87.49956063 -22.3125 85.25 C-23.15931133 80.16913204 -23.40288099 75.40171623 -23.3125 70.25 C-22.9825 70.25 -22.6525 70.25 -22.3125 70.25 C-22.02375 71.343125 -21.735 72.43625 -21.4375 73.5625 C-20.49356796 77.29013845 -20.49356796 77.29013845 -18.3125 80.25 C-13.10921847 80.83292359 -13.10921847 80.83292359 -8.375 79.125 C-7.12072058 77.18575227 -7.12072058 77.18575227 -6.9375 74.375 C-6.12603541 70.31767706 -4.37182348 68.9451183 -1.3125 66.25 C-0.714375 65.651875 -0.11625 65.05375 0.5 64.4375 C0.891875 64.045625 1.28375 63.65375 1.6875 63.25 C0.6975 63.745 0.6975 63.745 -0.3125 64.25 C-4.68612014 64.74512681 -6.63205244 64.74223866 -10.25 62.125 C-12.3125 59.25 -12.3125 59.25 -12.9375 56.25 C-12.07602053 52.11489856 -10.71312986 50.72962594 -7.3125 48.25 C-4.5778507 47.56254657 -2.1535739 47.39446138 0.6875 47.25 C-0.3025 46.59 -1.2925 45.93 -2.3125 45.25 C-1.6525 44.26 -0.9925 43.27 -0.3125 42.25 C0.0175 41.26 0.3475 40.27 0.6875 39.25 C-0.26125 39.29125 -1.21 39.3325 -2.1875 39.375 C-5.3125 39.25 -5.3125 39.25 -7.3125 37.25 C-8.158125 36.46625 -9.00375 35.6825 -9.875 34.875 C-13.09473496 31.40759312 -13.09473496 31.40759312 -13.3125 28.25 C-12.3125 26.25 -12.3125 26.25 -9.3125 25.25 C-6.99917514 21.78001271 -6.97292437 20.32490752 -7.3125 16.25 C-7.9725 15.26 -8.6325 14.27 -9.3125 13.25 C-10.25 9.875 -10.25 9.875 -10.3125 6.25 C-7.9375 3.375 -7.9375 3.375 -5.3125 1.25 C-3.74272426 -0.31977574 -2.17053613 0.04262919 0 0 Z " fill="#432D79" transform="translate(103.3125,56.75)"/>
<path d="M0 0 C5.75 -0.125 5.75 -0.125 8 1 C8 1.66 8 2.32 8 3 C10.85778033 3.68493373 10.85778033 3.68493373 14 4 C14.99 3.34 15.98 2.68 17 2 C19.48046875 1.8046875 19.48046875 1.8046875 22.1875 1.875 C23.08855469 1.89304687 23.98960938 1.91109375 24.91796875 1.9296875 C25.60503906 1.95289062 26.29210937 1.97609375 27 2 C27 2.33 27 2.66 27 3 C26.39671875 3.02578125 25.7934375 3.0515625 25.171875 3.078125 C21.34178829 3.34993761 18.68984271 3.54571334 15.4375 5.6875 C13.53461214 8.74866743 13.40924921 10.45549525 14 14 C15.43661311 16.52006844 15.43661311 16.52006844 18 18 C21.87209322 18.34572261 25.28983366 18.18725323 29 17 C24.25 21.875 24.25 21.875 22 23 C21.53348793 25.12576782 21.53348793 25.12576782 21.375 27.5625 C21.30023438 28.38878906 21.22546875 29.21507812 21.1484375 30.06640625 C21.09945312 30.70449219 21.05046875 31.34257812 21 32 C20.34 32 19.68 32 19 32 C18.46375 32.66 17.9275 33.32 17.375 34 C14.41594343 36.49183711 12.68261644 36.63470182 8.90625 36.47265625 C7 36 7 36 4.5 33.5 C4.005 32.675 3.51 31.85 3 31 C3.185625 32.11375 3.37125 33.2275 3.5625 34.375 C4 38 4 38 3 40 C5.97 40.66 8.94 41.32 12 42 C12.33 41.34 12.66 40.68 13 40 C13 40.66 13 41.32 13 42 C15.97 41.505 15.97 41.505 19 41 C19 42.65 19 44.3 19 46 C19.66 44.68 20.32 43.36 21 42 C23.3125 41.6875 23.3125 41.6875 26 42 C29.12592869 45.68413024 29.40494811 49.32459231 30 54 C30.66 55.32 31.32 56.64 32 58 C18.47 58 4.94 58 -9 58 C-9.020625 51.60625 -9.04125 45.2125 -9.0625 38.625 C-9.071604 36.60713379 -9.08070801 34.58926758 -9.09008789 32.51025391 C-9.09300776 30.91569078 -9.09555615 29.32112691 -9.09765625 27.7265625 C-9.10277222 26.89471436 -9.10788818 26.06286621 -9.11315918 25.20581055 C-9.1140718 19.2281436 -9.1140718 19.2281436 -8 17 C-8.020625 15.906875 -8.04125 14.81375 -8.0625 13.6875 C-8.00156192 10.09215329 -7.72804831 8.11048696 -6 5 C-2.68965517 2 -2.68965517 2 0 2 C0 1.34 0 0.68 0 0 Z " fill="#442D7D" transform="translate(78,102)"/>
<path d="M0 0 C2.36574234 3.5486135 2.10865265 4.5764525 1.625 8.6875 C1.51414063 9.68136719 1.40328125 10.67523438 1.2890625 11.69921875 C1.14597656 12.83810547 1.14597656 12.83810547 1 14 C2.093125 14.268125 3.18625 14.53625 4.3125 14.8125 C9.05093479 16.33843663 9.05093479 16.33843663 11 19 C11.3984375 21.55859375 11.3984375 21.55859375 11.375 24.4375 C11.38660156 25.85869141 11.38660156 25.85869141 11.3984375 27.30859375 C10.93590892 30.43292897 10.29379269 31.83420913 8 34 C3.46657292 34.67916511 -0.28860332 33.48908522 -4 30.9375 C-4.66 30.298125 -5.32 29.65875 -6 29 C-6.33 29 -6.66 29 -7 29 C-7.495 25.04 -7.495 25.04 -8 21 C-8.66 24.63 -9.32 28.26 -10 32 C-10.66 32 -11.32 32 -12 32 C-12 32.66 -12 33.32 -12 34 C-15.63 34 -19.26 34 -23 34 C-23 33.34 -23 32.68 -23 32 C-23.66 32 -24.32 32 -25 32 C-25.99 30.02 -26.98 28.04 -28 26 C-28.99 28.64 -29.98 31.28 -31 34 C-31.66 34 -32.32 34 -33 34 C-33.33 34.66 -33.66 35.32 -34 36 C-35.39613065 35.85704109 -36.79189308 35.71048442 -38.1875 35.5625 C-38.96480469 35.48128906 -39.74210937 35.40007812 -40.54296875 35.31640625 C-43.06001996 34.99227088 -45.5177143 34.52467495 -48 34 C-48.56477413 21.07294779 -48.56477413 21.07294779 -45 16 C-42.29120665 14.64560332 -39.99066732 14.93498549 -37 15 C-37.03480469 14.32453125 -37.06960937 13.6490625 -37.10546875 12.953125 C-37.13253906 12.06109375 -37.15960938 11.1690625 -37.1875 10.25 C-37.23970703 8.92742187 -37.23970703 8.92742187 -37.29296875 7.578125 C-36.94038253 4.47536624 -36.18835725 3.20321035 -34 1 C-27.75709001 -0.73982737 -27.75709001 -0.73982737 -24.14453125 0.78125 C-21.72325691 2.48361866 -20.16674347 4.13714301 -19.59765625 7.08203125 C-19.5625 9.25 -19.5625 9.25 -20 13 C-20.33 13.33 -20.66 13.66 -21 14 C-19.35 14 -17.7 14 -16 14 C-16.05800781 13.40832031 -16.11601562 12.81664062 -16.17578125 12.20703125 C-16.42607078 7.82338891 -16.48334904 5.68237511 -13.875 2 C-9.38881973 -1.12082106 -5.21202314 -1.73734105 0 0 Z " fill="#21307B" transform="translate(155,123)"/>
<path d="M0 0 C3.03867071 0.03387053 4.50384573 0.15593318 7.25 1.5625 C8.6875 3.25 8.6875 3.25 8.6875 6.25 C9.3475 6.25 10.0075 6.25 10.6875 6.25 C10.6875 4.93 10.6875 3.61 10.6875 2.25 C12.6875 0.25 12.6875 0.25 15.1484375 -0.015625 C16.11007813 -0.01046875 17.07171875 -0.0053125 18.0625 0 C19.01898438 -0.00515625 19.97546875 -0.0103125 20.9609375 -0.015625 C23.74876058 0.25596808 25.38463069 0.67269225 27.6875 2.25 C28.64820434 5.13211302 28.79331883 6.94850044 28.75 9.9375 C28.74097656 10.74574219 28.73195312 11.55398437 28.72265625 12.38671875 C28.71105469 13.00160156 28.69945312 13.61648437 28.6875 14.25 C26.7075 15.24 26.7075 15.24 24.6875 16.25 C24.6875 17.24 24.6875 18.23 24.6875 19.25 C25.6775 19.91 26.6675 20.57 27.6875 21.25 C28.74859779 26.08683745 28.31353015 31.03885002 25.875 35.375 C23.95882187 37.74106343 22.98217826 38.20053765 19.94140625 38.7109375 C17.1279723 38.74752312 14.47071141 38.66094397 11.6875 38.25 C11.1925 37.755 11.1925 37.755 10.6875 37.25 C8.63353274 37.65929986 8.63353274 37.65929986 6.6875 38.25 C6.3575 37.26 6.0275 36.27 5.6875 35.25 C4.2025 35.745 4.2025 35.745 2.6875 36.25 C2.6875 36.91 2.6875 37.57 2.6875 38.25 C-3.3671875 39.2265625 -3.3671875 39.2265625 -5.3125 39.25 C-5.9725 38.59 -6.6325 37.93 -7.3125 37.25 C-8.158125 36.46625 -9.00375 35.6825 -9.875 34.875 C-13.09473496 31.40759312 -13.09473496 31.40759312 -13.3125 28.25 C-12.3125 26.25 -12.3125 26.25 -9.3125 25.25 C-6.99917514 21.78001271 -6.97292437 20.32490752 -7.3125 16.25 C-7.9725 15.26 -8.6325 14.27 -9.3125 13.25 C-10.25 9.875 -10.25 9.875 -10.3125 6.25 C-7.9375 3.375 -7.9375 3.375 -5.3125 1.25 C-3.74272426 -0.31977574 -2.17053613 0.04262919 0 0 Z " fill="#3D2A51" transform="translate(103.3125,56.75)"/>
<path d="M0 0 C1.65 0.33 3.3 0.66 5 1 C5 34.66 5 68.32 5 103 C38.66 103 72.32 103 107 103 C107.33 104.32 107.66 105.64 108 107 C106.46333358 108.53666642 105.05582365 108.13527452 102.91372681 108.14717102 C102.03320145 108.15432632 101.15267609 108.16148163 100.24546814 108.16885376 C98.78518944 108.17288712 98.78518944 108.17288712 97.29541016 108.17700195 C95.76623207 108.18685875 95.76623207 108.18685875 94.2061615 108.19691467 C90.81712786 108.21670001 87.4281386 108.22832101 84.0390625 108.23828125 C82.30842623 108.24439454 82.30842623 108.24439454 80.54282761 108.25063133 C74.43805874 108.271513 68.33331251 108.28580644 62.22851562 108.29516602 C55.90734606 108.30624348 49.58652728 108.34065312 43.26548195 108.38033772 C38.41858239 108.40642024 33.5717675 108.41485033 28.72480392 108.41844749 C26.39391075 108.42333401 24.06302185 108.4350061 21.73219681 108.45348549 C18.47563731 108.47770213 15.21999991 108.47694392 11.96337891 108.4699707 C10.99390823 108.48278076 10.02443756 108.49559082 9.02558899 108.50878906 C2.68339171 108.45909283 2.68339171 108.45909283 -0.10043335 106.58895874 C-1.53650332 102.4559399 -1.3987071 98.45071659 -1.35644531 94.10668945 C-1.35848969 93.10309387 -1.36053406 92.09949829 -1.36264038 91.06549072 C-1.3656489 87.74790233 -1.34717181 84.43081057 -1.328125 81.11328125 C-1.32506799 78.81210961 -1.32319143 76.51093612 -1.32244873 74.20976257 C-1.31784554 69.38871169 -1.30341636 64.56782783 -1.28125 59.74682617 C-1.25292006 53.55235314 -1.24203382 47.35801147 -1.2375679 41.1634798 C-1.23342151 36.41359633 -1.22361138 31.66373968 -1.21169281 26.91386986 C-1.20597757 24.62879846 -1.20122304 22.34372446 -1.19742584 20.05864906 C-1.19058884 16.87409498 -1.17696996 13.68964736 -1.16113281 10.50512695 C-1.16001495 9.55188034 -1.15889709 8.59863373 -1.15774536 7.61650085 C-1.15203522 6.75424896 -1.14632507 5.89199707 -1.14044189 5.00361633 C-1.13746723 4.25017598 -1.13449257 3.49673563 -1.13142776 2.72046375 C-1 1 -1 1 0 0 Z " fill="#FDF8FE" transform="translate(62,59)"/>
<path d="M0 0 C2.6875 2.4375 2.6875 2.4375 5 5 C5.99 5.33 6.98 5.66 8 6 C8 7.65 8 9.3 8 11 C7.01 11 6.02 11 5 11 C5 11.99 5 12.98 5 14 C7.475 14.495 7.475 14.495 10 15 C10 15.66 10 16.32 10 17 C6.97265625 17.63476562 6.97265625 17.63476562 3.9453125 18.26953125 C1.62953451 18.92308838 1.62953451 18.92308838 0 22 C-0.24150773 24.51584891 -0.24150773 24.51584891 -0.125 27.1875 C-0.10695312 28.08855469 -0.08890625 28.98960937 -0.0703125 29.91796875 C-0.04710937 30.60503906 -0.02390625 31.29210937 0 32 C-2.31 32 -4.62 32 -7 32 C-6.67 31.34 -6.34 30.68 -6 30 C-5.32573112 24.25540311 -5.32573112 24.25540311 -8 19.4375 C-12.25790689 17.39725295 -14.43093018 17.87645824 -19 19 C-21.10827055 22.16240582 -21.33817465 23.50657469 -21.625 27.1875 C-21.69976562 28.08855469 -21.77453125 28.98960937 -21.8515625 29.91796875 C-21.90054688 30.60503906 -21.94953125 31.29210937 -22 32 C-24.64 32.33 -27.28 32.66 -30 33 C-30.33 31.68 -30.66 30.36 -31 29 C-31.45375 29.495 -31.9075 29.99 -32.375 30.5 C-34 32 -34 32 -36 32 C-37.59138085 27.82262526 -38.21278058 24.46839215 -38 20 C-37.401875 19.7525 -36.80375 19.505 -36.1875 19.25 C-33.87793212 18.15271216 -33.87793212 18.15271216 -32.6875 15.96875 C-31 14 -31 14 -28.51953125 13.390625 C-27.62621094 13.34421875 -26.73289062 13.2978125 -25.8125 13.25 C-24.91144531 13.19328125 -24.01039062 13.1365625 -23.08203125 13.078125 C-22.05142578 13.03945312 -22.05142578 13.03945312 -21 13 C-20.01 14.485 -20.01 14.485 -19 16 C-16.36 15.67 -13.72 15.34 -11 15 C-11 14.34 -11 13.68 -11 13 C-11.66 13 -12.32 13 -13 13 C-13 10.69 -13 8.38 -13 6 C-12.34 6 -11.68 6 -11 6 C-10.731875 5.195625 -10.46375 4.39125 -10.1875 3.5625 C-9.795625 2.716875 -9.40375 1.87125 -9 1 C-5.63633609 -0.1212213 -3.52465728 -0.42295887 0 0 Z " fill="#442D7D" transform="translate(140,106)"/>
<path d="M0 0 C1.86325038 1.570146 2.896026 2.48017386 3.38196754 4.90967655 C3.38527769 5.63437358 3.38858784 6.35907061 3.39199829 7.10572815 C3.40863777 8.35708054 3.40863777 8.35708054 3.4256134 9.63371277 C3.4211042 11.00140556 3.4211042 11.00140556 3.41650391 12.39672852 C3.42508926 13.3595575 3.43367462 14.32238647 3.44252014 15.31439209 C3.46765065 18.50263714 3.47196519 21.69057108 3.4765625 24.87890625 C3.4908656 27.08944151 3.50662135 29.2999678 3.52377319 31.51048279 C3.56569196 37.33432231 3.59064587 43.15810632 3.61126709 48.98205566 C3.64703888 58.30847781 3.70795181 67.63476299 3.76975632 76.9610424 C3.78889952 80.22610819 3.8005923 83.4911374 3.81118774 86.75624084 C3.82139613 88.74838338 3.83175373 90.74052516 3.84228516 92.73266602 C3.84332748 93.64648544 3.84436981 94.56030487 3.84544373 95.5018158 C3.73512038 99.88836638 3.73512038 99.88836638 5 104 C38 104 71 104 105 104 C105 104.66 105 105.32 105 106 C91.75295655 106.2231165 78.50577916 106.42464631 65.25799084 106.59840012 C59.10691153 106.67975887 52.95612989 106.76863191 46.80541992 106.87451172 C40.87282862 106.97636308 34.94026177 107.05869292 29.00719643 107.12732697 C26.74041806 107.15701203 24.47372156 107.19380505 22.2071743 107.2377243 C19.03932252 107.29790991 15.87212481 107.33311625 12.70385742 107.36230469 C11.28937317 107.39790245 11.28937317 107.39790245 9.84631348 107.43421936 C3.67620602 107.45507929 3.67620602 107.45507929 0.91479492 105.59667969 C-0.54370568 101.45667105 -0.39010543 97.44752175 -0.34057617 93.09082031 C-0.34101425 92.08561844 -0.34145233 91.08041656 -0.34190369 90.04475403 C-0.33981373 86.72234675 -0.31647242 83.40044413 -0.29296875 80.078125 C-0.28737354 77.77455928 -0.28310309 75.47099 -0.28010559 73.16741943 C-0.26865095 67.1043309 -0.23917818 61.04145795 -0.20599365 54.97845459 C-0.17530627 48.79165564 -0.16160309 42.60482187 -0.14648438 36.41796875 C-0.11430929 24.27855111 -0.06310525 12.13929348 0 0 Z " fill="#DBD7E4" transform="translate(61,60)"/>
<path d="M0 0 C5.75 -0.125 5.75 -0.125 8 1 C8 1.66 8 2.32 8 3 C10.85778033 3.68493373 10.85778033 3.68493373 14 4 C14.99 3.34 15.98 2.68 17 2 C19.48046875 1.8046875 19.48046875 1.8046875 22.1875 1.875 C23.08855469 1.89304687 23.98960938 1.91109375 24.91796875 1.9296875 C25.60503906 1.95289062 26.29210937 1.97609375 27 2 C27 2.33 27 2.66 27 3 C26.39671875 3.02578125 25.7934375 3.0515625 25.171875 3.078125 C21.34178829 3.34993761 18.68984271 3.54571334 15.4375 5.6875 C13.53461214 8.74866743 13.40924921 10.45549525 14 14 C15.43661311 16.52006844 15.43661311 16.52006844 18 18 C21.87209322 18.34572261 25.28983366 18.18725323 29 17 C24.25 21.875 24.25 21.875 22 23 C21.53348793 25.12576782 21.53348793 25.12576782 21.375 27.5625 C21.30023438 28.38878906 21.22546875 29.21507812 21.1484375 30.06640625 C21.09945312 30.70449219 21.05046875 31.34257812 21 32 C20.67 32 20.34 32 20 32 C19.7525 30.9275 19.505 29.855 19.25 28.75 C17.97679905 24.93039716 17.36057963 23.17983543 14 21 C9.76687689 21.14853064 7.53897678 21.64068215 4 24 C3.67 23.34 3.34 22.68 3 22 C1.906875 21.731875 0.81375 21.46375 -0.3125 21.1875 C-4 20 -4 20 -6.5 17.9375 C-8.35129552 14.31204626 -8.32153539 12.05647117 -7.6875 8.09375 C-6.63967678 4.90265201 -4.86648499 3.60802817 -2 2 C-1.34 2 -0.68 2 0 2 C0 1.34 0 0.68 0 0 Z " fill="#4F236A" transform="translate(78,102)"/>
<path d="M0 0 C2.475 0.495 2.475 0.495 5 1 C5 34.33 5 67.66 5 102 C4.01 102 3.02 102 2 102 C1.98969254 100.78113098 1.97938507 99.56226196 1.96876526 98.30645752 C1.87107927 86.82905987 1.76834967 75.35171701 1.66066074 63.87440872 C1.60545735 57.97358315 1.55204138 52.07275261 1.50268555 46.171875 C1.45500402 40.47898776 1.40265969 34.78616086 1.34705925 29.09334564 C1.3266529 26.91961924 1.30793698 24.74587629 1.29092598 22.57212067 C1.26684404 19.53141799 1.23679443 16.49082921 1.20532227 13.45019531 C1.1995668 12.54820404 1.19381134 11.64621277 1.18788147 10.71688843 C1.17809265 9.88680267 1.16830383 9.05671692 1.15821838 8.20147705 C1.15176583 7.48247852 1.14531328 6.76348 1.1386652 6.02269363 C0.99414287 3.91456264 0.57272836 2.03027872 0 0 Z " fill="#EFE9F7" transform="translate(62,59)"/>
<path d="M0 0 C2.7710688 2.34591852 3.52059284 4.14776201 4.1875 7.6875 C4.34605469 8.49574219 4.50460938 9.30398437 4.66796875 10.13671875 C4.77753906 10.75160156 4.88710937 11.36648437 5 12 C5.66 12 6.32 12 7 12 C7.33 11.01 7.66 10.02 8 9 C8.99 8.67 9.98 8.34 11 8 C12.43410153 11.78819273 11.51009497 14.06521279 10.0625 17.75 C9.68222656 18.73484375 9.30195312 19.7196875 8.91015625 20.734375 C8.60980469 21.48203125 8.30945313 22.2296875 8 23 C7.4225 22.34 6.845 21.68 6.25 21 C4.00346023 18.55709077 4.00346023 18.55709077 0 19 C-0.66 20.32 -1.32 21.64 -2 23 C-2.33 23 -2.66 23 -3 23 C-3 21.35 -3 19.7 -3 18 C-3.66386719 18.02320313 -4.32773438 18.04640625 -5.01171875 18.0703125 C-13.78207381 18.24956063 -13.78207381 18.24956063 -18 16 C-18.84681133 10.91913204 -19.09038099 6.15171623 -19 1 C-18.67 1 -18.34 1 -18 1 C-17.71125 2.093125 -17.4225 3.18625 -17.125 4.3125 C-16.18106796 8.04013845 -16.18106796 8.04013845 -14 11 C-8.79671847 11.58292359 -8.79671847 11.58292359 -4.0625 9.875 C-2.6259333 7.33988229 -2.4264103 4.86304061 -2 2 C-1.34 1.34 -0.68 0.68 0 0 Z " fill="#472C7D" transform="translate(99,126)"/>
<path d="M0 0 C0.33 0 0.66 0 1 0 C3.14285714 7.42857143 3.14285714 7.42857143 4 11 C4.66 11 5.32 11 6 11 C6 11.66 6 12.32 6 13 C9.63 13 13.26 13 17 13 C17 12.34 17 11.68 17 11 C17.99 11.495 17.99 11.495 19 12 C18.67 12.99 18.34 13.98 18 15 C25.92 15.33 33.84 15.66 42 16 C42 16.33 42 16.66 42 17 C8.67 17 -24.66 17 -59 17 C-59 16.67 -59 16.34 -59 16 C-45.14 15.67 -31.28 15.34 -17 15 C-17 14.01 -17 13.02 -17 12 C-16.16855469 12.15597656 -15.33710937 12.31195313 -14.48046875 12.47265625 C-13.39378906 12.66730469 -12.30710938 12.86195313 -11.1875 13.0625 C-10.10855469 13.25972656 -9.02960938 13.45695313 -7.91796875 13.66015625 C-4.94098219 14.21580075 -4.94098219 14.21580075 -2 13 C-1.34 8.71 -0.68 4.42 0 0 Z " fill="#331F64" transform="translate(126,144)"/>
<path d="M0 0 C1.875 0.625 1.875 0.625 4 2 C4.69100553 3.99172182 5.35902703 5.99161804 6 8 C6.99 8.33 7.98 8.66 9 9 C9.33 9.66 9.66 10.32 10 11 C11.65 10.67 13.3 10.34 15 10 C17.13586678 13.20380017 17.23132175 14.01939967 17.125 17.6875 C17.10695313 18.49574219 17.08890625 19.30398437 17.0703125 20.13671875 C17.04710938 20.75160156 17.02390625 21.36648437 17 22 C17.66 22 18.32 22 19 22 C19.33 22.66 19.66 23.32 20 24 C21.655611 24.93393441 23.34950522 25.80102783 25.0625 26.625 C25.98160156 27.07101563 26.90070312 27.51703125 27.84765625 27.9765625 C28.91306641 28.48316406 28.91306641 28.48316406 30 29 C30.66 27.68 31.32 26.36 32 25 C34 29.75 34 29.75 34 32 C35.68240728 33.74082372 35.68240728 33.74082372 37.8125 35.5 C38.87404297 36.41265625 38.87404297 36.41265625 39.95703125 37.34375 C42.10208072 39.13529144 42.10208072 39.13529144 45 41 C45.33 41.33 45.66 41.66 46 42 C46.66 41.67 47.32 41.34 48 41 C48 41.99 48 42.98 48 44 C48.99 44 49.98 44 51 44 C51 44.66 51 45.32 51 46 C38.67800471 44.29882901 27.84398079 34.12275911 19 26 C18.17628906 25.25878906 17.35257813 24.51757812 16.50390625 23.75390625 C10.26811548 17.8639479 1.3558205 8.74927917 0 0 Z " fill="#362B63" transform="translate(22,167)"/>
<path d="M0 0 C2.4375 1.6875 2.4375 1.6875 4 4 C4.63656938 7.73984509 4.25584708 9.50962644 2.5 12.875 C-0.37613483 15.31971461 -2.27027493 15.67780342 -6.02734375 15.41796875 C-9.26567629 14.731827 -10.88713915 13.50902226 -13 11 C-13.75502236 7.05710546 -13.35744093 5.53616139 -11.125 2.1875 C-7.38445041 -1.66306575 -5.14450674 -1.1530791 0 0 Z " fill="#3395D0" transform="translate(141,140)"/>
<path d="M0 0 C1.9375 1.0625 1.9375 1.0625 3 3 C3.63852859 7.9485966 3.74271661 9.89717837 0.9375 14.0625 C-2 16 -2 16 -5.5625 16.125 C-9.66488116 14.78240253 -11.00630003 13.82125828 -13 10 C-13.07481382 5.73561227 -12.64839572 3.76281849 -9.875 0.5 C-6.08386986 -1.47798094 -4.07202027 -1.13111674 0 0 Z " fill="#F9D932" transform="translate(108,78)"/>
<path d="M0 0 C3.5 0.6875 3.5 0.6875 6.5 3.3125 C8.5 6.6875 8.5 6.6875 8.5625 9.8125 C7.32481182 13.16153861 6.45552697 14.66529734 3.5 16.6875 C-0.41451456 17.24671637 -2.5382229 17.32024809 -5.875 15.125 C-8.0699479 11.83257816 -8.56944397 9.64580645 -8.5 5.6875 C-5.96514795 1.96443605 -4.42720439 0.86962943 0 0 Z " fill="#F9DB39" transform="translate(103.5,57.3125)"/>
<path d="M0 0 C3.80484394 0.71340824 5.4511805 1.6388541 8 4.5625 C8.52399488 8.75445902 8.44675919 12.02829228 6 15.5625 C2.78447181 17.17026409 -0.52206 17.16735913 -4 16.5625 C-6.99097304 14.02017292 -7.84202557 12.4050303 -8.5625 8.5625 C-7.62098494 3.54108633 -5.02141367 0.94151506 0 0 Z " fill="#ED5799" transform="translate(80,104.4375)"/>
<path d="M0 0 C4.10703441 0.85563217 5.55401113 2.24378009 8 5.625 C8.63007693 9.61548721 8.63021887 11.64185857 6.4375 15.0625 C3.01685857 17.25521887 0.99048721 17.25507693 -3 16.625 C-6.38121991 14.17901113 -7.76936783 12.73203441 -8.625 8.625 C-7.58039389 3.61089068 -5.01410932 1.04460611 0 0 Z " fill="#F05399" transform="translate(99,104.375)"/>
<path d="M0 0 C2.9375 2 2.9375 2 5 5 C5.37997114 7.91500248 5.0717772 10.26430349 4 13 C1.30949588 15.45988949 -0.47476344 15.92496621 -4.0625 16.4375 C-7 16 -7 16 -9.375 14.5 C-11.78890515 10.78629977 -11.41861083 8.39541369 -11 4 C-8.08828824 -0.36756764 -5.03287235 -0.60394468 0 0 Z " fill="#3299D4" transform="translate(140,106)"/>
<path d="M0 0 C2.8125 1.5625 2.8125 1.5625 5 4 C5.625 7.4375 5.625 7.4375 5 11 C2.9375 13.9375 2.9375 13.9375 0 16 C-3.99048721 16.63007693 -6.01685857 16.63021887 -9.4375 14.4375 C-11.58879747 11.08147594 -11.48947291 8.91578329 -11 5 C-8.45537501 0.3954405 -5.11400268 -0.60880984 0 0 Z " fill="#3897D0" transform="translate(129,123)"/>
<path d="M0 0 C3 2 3 2 5 5 C5.37468449 7.91799741 5.06531397 10.25977573 4 13 C1.875 15.0625 1.875 15.0625 -1 16 C-4.41790842 15.88214109 -6.92563699 15.58916681 -9.9375 13.9375 C-11.69366901 10.73507415 -11.62026592 7.50309274 -11 4 C-8.16650967 -0.53358453 -5.10426635 -0.80593679 0 0 Z " fill="#EEC91C" transform="translate(126,58)"/>
<path d="M0 0 C4.0743356 0.84881992 5.54405875 2.30225596 8 5.625 C8.625 8.625 8.625 8.625 8 11.625 C5.54405875 14.94774404 4.0743356 16.40118008 0 17.25 C-4.0743356 16.40118008 -5.54405875 14.94774404 -8 11.625 C-8.625 8.625 -8.625 8.625 -8 5.625 C-5.54405875 2.30225596 -4.0743356 0.84881992 0 0 Z " fill="#1DA9DF" transform="translate(147,122.375)"/>
<path d="M0 0 C0.66 0 1.32 0 2 0 C2.28875 1.11375 2.5775 2.2275 2.875 3.375 C3.69241329 7.00291092 3.69241329 7.00291092 6 9 C9.80586935 9.33094516 12.97091666 9.4881756 16 7 C17.29920746 3.45411499 17.29920746 3.45411499 18 0 C18.99 0 19.98 0 21 0 C21 1.65 21 3.3 21 5 C20.01 5 19.02 5 18 5 C18 5.99 18 6.98 18 8 C20.475 8.495 20.475 8.495 23 9 C23 9.66 23 10.32 23 11 C20.98177083 11.42317708 18.96354167 11.84635417 16.9453125 12.26953125 C14.62953451 12.92308838 14.62953451 12.92308838 13 16 C12.75849227 18.51584891 12.75849227 18.51584891 12.875 21.1875 C12.90207031 22.53908203 12.90207031 22.53908203 12.9296875 23.91796875 C12.95289063 24.60503906 12.97609375 25.29210937 13 26 C10.69 26 8.38 26 6 26 C6.33 25.34 6.66 24.68 7 24 C7.67426888 18.25540311 7.67426888 18.25540311 5 13.4375 C0.74209311 11.39725295 -1.43093018 11.87645824 -6 13 C-8.12508244 16.18762365 -8.5020163 18.26512223 -9 22 C-9.33 22 -9.66 22 -10 22 C-10 19.03 -10 16.06 -10 13 C-2.71428571 8.42857143 -2.71428571 8.42857143 2 9 C2 8.34 2 7.68 2 7 C1.34 7 0.68 7 0 7 C0 4.69 0 2.38 0 0 Z " fill="#302A76" transform="translate(127,112)"/>
<path d="M0 0 C3.71317907 1.14770989 5.2692056 1.85342428 7.4375 5.0625 C8.07406938 8.80234509 7.69334708 10.57212644 5.9375 13.9375 C2.89581021 16.52293632 1.23742767 16.75260681 -2.65625 16.4765625 C-4.5625 16.0625 -4.5625 16.0625 -7.0625 14.5 C-9.17256839 11.07113886 -9.18741523 9.02029649 -8.5625 5.0625 C-5.90798953 1.20139386 -4.7398766 0.08315573 0 0 Z " fill="#FADA39" transform="translate(123.5625,76.9375)"/>
<path d="M0 0 C2.12833423 1.62254186 2.90136515 2.50949158 3.43359375 5.15625 C3.44398254 11.38952401 3.44398254 11.38952401 1.5 14.0625 C-2.08540584 15.40702719 -5.23089803 15.80931637 -9 15 C-11.5625 12.9375 -11.5625 12.9375 -13 10 C-12.93822484 6.41704089 -12.76840164 4.04782042 -10.625 1.125 C-6.9417166 -1.42496543 -4.17372926 -1.04343232 0 0 Z " fill="#1BAAE0" transform="translate(162,140)"/>
<path d="M0 0 C3.71317907 1.14770989 5.2692056 1.85342428 7.4375 5.0625 C8.07406938 8.80234509 7.69334708 10.57212644 5.9375 13.9375 C2.89581021 16.52293632 1.23742767 16.75260681 -2.65625 16.4765625 C-4.5625 16.0625 -4.5625 16.0625 -7.0625 14.5 C-9.17256839 11.07113886 -9.18741523 9.02029649 -8.5625 5.0625 C-5.90798953 1.20139386 -4.7398766 0.08315573 0 0 Z " fill="#2B9ED7" transform="translate(116.5625,138.9375)"/>
<path d="M0 0 C3.62336332 2.6571331 4.85568506 4.08600539 5.5625 8.5625 C5 12 5 12 3.5 14.4375 C0.46962931 16.33148168 -1.55830934 16.64334247 -5.08984375 16.4453125 C-7 16 -7 16 -9.5625 13.9375 C-11.46450952 10.0507849 -11.2706357 8.11088021 -10 4 C-6.94716882 0.69276622 -4.52472904 -1.01806403 0 0 Z " fill="#E35696" transform="translate(92,122)"/>
<path d="M0 0 C4.15133089 -0.09884121 7.91428482 0.31904747 12 1 C13.99965715 1.03703069 16.00056665 1.04760556 18 1 C18 0.67 18 0.34 18 0 C22.71893231 -0.23019182 26.52180053 0.50726684 31 2 C31.33 2.33 31.66 2.66 32 3 C33.67581727 2.76658259 35.34175409 2.46125542 37 2.125 C41.99729077 1.15820388 46.93586698 0.49811144 52 0 C43.32099335 7.52663475 28.85739199 6.39287943 18.125 6.1875 C16.7435045 6.17239548 15.36199266 6.15871747 13.98046875 6.14648438 C10.65321134 6.11158307 7.32683239 6.06255856 4 6 C3.67 5.01 3.34 4.02 3 3 C2.01 3 1.02 3 0 3 C0 2.01 0 1.02 0 0 Z " fill="#35286C" transform="translate(96,216)"/>
<path d="M0 0 C0.99 0.33 1.98 0.66 3 1 C4.89073125 5.201625 5.33776361 9.31313146 5.65625 13.8515625 C6.03468591 16.21678694 6.83361632 17.92120327 8 20 C8.99 20 9.98 20 11 20 C11 20.99 11 21.98 11 23 C11.66 23.33 12.32 23.66 13 24 C12.814375 24.556875 12.62875 25.11375 12.4375 25.6875 C11.92448835 28.399133 12.3359276 30.34371039 13 33 C11.515 33.495 11.515 33.495 10 34 C-0.29356602 11.77717802 -0.29356602 11.77717802 0 0 Z " fill="#392F69" transform="translate(10,132)"/>
<path d="M0 0 C0.99 0.33 1.98 0.66 3 1 C2.814375 1.598125 2.62875 2.19625 2.4375 2.8125 C1.77906313 5.16408762 1.77906313 5.16408762 3 8 C2.5625 10.1875 2.5625 10.1875 2 12 C0.68 11.67 -0.64 11.34 -2 11 C-5.52654876 15.03034145 -7.73068693 19.20922797 -10 24 C-11 26 -12 28 -13 30 C-13.66 29.67 -14.32 29.34 -15 29 C-11.88783437 18.38202315 -7.35612783 8.32936124 0 0 Z " fill="#3D3369" transform="translate(29,51)"/>
<path d="M0 0 C2.31 0 4.62 0 7 0 C6.71517632 1.41805831 6.42181856 2.83440379 6.125 4.25 C5.96257812 5.03890625 5.80015625 5.8278125 5.6328125 6.640625 C5.00514847 8.98080446 4.15186467 10.87624952 3 13 C2.62875 13.7425 2.2575 14.485 1.875 15.25 C1.58625 15.8275 1.2975 16.405 1 17 C0.34 17 -0.32 17 -1 17 C-1.33 17.66 -1.66 18.32 -2 19 C-3.39613065 18.85704109 -4.79189308 18.71048442 -6.1875 18.5625 C-6.96480469 18.48128906 -7.74210937 18.40007812 -8.54296875 18.31640625 C-11.04640786 17.99402379 -13.52490524 17.49501895 -16 17 C-16 13.04 -16 9.08 -16 5 C-15.67 5 -15.34 5 -15 5 C-14.71125 6.11375 -14.4225 7.2275 -14.125 8.375 C-13.30758671 12.00291092 -13.30758671 12.00291092 -11 14 C-8.63044614 14.31899515 -8.63044614 14.31899515 -6 14.25 C-4.6696875 14.25773438 -4.6696875 14.25773438 -3.3125 14.265625 C-0.80599761 14.22052862 -0.80599761 14.22052862 1 12 C1.28082344 9.89250534 1.28082344 9.89250534 1.1875 7.5625 C1.18105469 6.78003906 1.17460938 5.99757812 1.16796875 5.19140625 C1.07555669 2.82200323 1.07555669 2.82200323 0 0 Z " fill="#312C7A" transform="translate(123,140)"/>
<path d="M0 0 C0.33 0 0.66 0 1 0 C1.28875 1.093125 1.5775 2.18625 1.875 3.3125 C2.81893204 7.04013845 2.81893204 7.04013845 5 10 C9.94884301 10.40564287 13.48894322 10.25552839 18 8 C17.67 9.65 17.34 11.3 17 13 C15.68 13.33 14.36 13.66 13 14 C13 14.99 13 15.98 13 17 C8.45194365 17.17835515 5.1205746 16.99785435 1 15 C0.15318867 9.91913204 -0.09038099 5.15171623 0 0 Z " fill="#3B276E" transform="translate(80,127)"/>
<path d="M0 0 C3.1875 -0.375 3.1875 -0.375 7 0 C10 2.625 10 2.625 12 6 C12.0732472 9.6623602 11.43188056 11.36878996 9.375 14.375 C6.0464384 16.65243688 3.9491615 16.56416593 0 16 C-3.34546767 13.79903443 -3.91385486 12.32735154 -4.9375 8.4375 C-5 5 -5 5 -3.5625 3.0625 C-3.046875 2.711875 -2.53125 2.36125 -2 2 C-1.67 2.99 -1.34 3.98 -1 5 C0.65 5.33 2.3 5.66 4 6 C3.67 6.99 3.34 7.98 3 9 C0.03 8.505 0.03 8.505 -3 8 C-2.34 9.98 -1.68 11.96 -1 14 C3.64640915 14.3427065 3.64640915 14.3427065 8 13 C9.67752669 9.64494663 8.65363227 6.62468805 8 3 C5.03 2.67 2.06 2.34 -1 2 C-0.67 1.34 -0.34 0.68 0 0 Z " fill="#EACD57" transform="translate(100,58)"/>
<path d="M0 0 C2.3125 1.5625 2.3125 1.5625 4 3 C3.45276317 6.37462715 2.9451 8.08235 1 11 C0.01 11 -0.98 11 -2 11 C-2 10.01 -2 9.02 -2 8 C-4.97 7.505 -4.97 7.505 -8 7 C-8.33 5.02 -8.66 3.04 -9 1 C-5.64846558 -1.11022538 -3.75933548 -1.22178403 0 0 Z " fill="#19AAE5" transform="translate(140,143)"/>
<path d="M0 0 C5.75 -0.125 5.75 -0.125 8 1 C8 1.66 8 2.32 8 3 C9.65 3.66 11.3 4.32 13 5 C12.34 8.3 11.68 11.6 11 15 C10.34 14.67 9.68 14.34 9 14 C9.0825 12.906875 9.165 11.81375 9.25 10.6875 C9.36733749 7.05147792 9.36733749 7.05147792 7.375 5.0625 C4.29442492 3.68434799 2.34262452 3.51253392 -1 4 C-3.5 5.5 -3.5 5.5 -5 8 C-5.48891657 11.35257076 -5.35810604 13.26389315 -3.875 16.3125 C-1.37679172 18.56088745 0.70948807 18.70751005 4 19 C3.67 19.66 3.34 20.32 3 21 C0.3125 21.375 0.3125 21.375 -3 21 C-6.17437003 18.36594828 -7.78492659 16.85861944 -8.26171875 12.73828125 C-8.01776203 8.52131512 -7.52893769 6.5560627 -4.5625 3.4375 C-2 2 -2 2 0 2 C0 1.34 0 0.68 0 0 Z " fill="#58216C" transform="translate(78,102)"/>
<path d="M0 0 C8.08888889 -0.46666667 8.08888889 -0.46666667 11.5625 1.3125 C13 3 13 3 13 6 C13.66 6 14.32 6 15 6 C15 4.68 15 3.36 15 2 C17 0 17 0 19.4609375 -0.265625 C20.42257813 -0.26046875 21.38421875 -0.2553125 22.375 -0.25 C23.33148438 -0.25515625 24.28796875 -0.2603125 25.2734375 -0.265625 C28.06126058 0.00596808 29.69713069 0.42269225 32 2 C32.96070434 4.88211302 33.10581883 6.69850044 33.0625 9.6875 C33.05347656 10.49574219 33.04445312 11.30398437 33.03515625 12.13671875 C33.02355469 12.75160156 33.01195312 13.36648437 33 14 C31.02 14.99 31.02 14.99 29 16 C29.350625 15.319375 29.70125 14.63875 30.0625 13.9375 C31.24958641 10.2179626 30.92419296 7.76786361 30 4 C26.30513897 1.53675931 24.36706908 1.61008312 20 2 C17.89757556 2.85219923 17.89757556 2.85219923 17 5 C16.62383319 8.47067113 16.40507197 11.81014393 18 15 C17.01 15 16.02 15 15 15 C14.67 14.01 14.34 13.02 14 12 C13.67 12.66 13.34 13.32 13 14 C12.34 13.67 11.68 13.34 11 13 C11.37125 11.6696875 11.37125 11.6696875 11.75 10.3125 C12.27884977 6.96982811 12.27884977 6.96982811 10.625 4.125 C6.86759287 1.08328946 3.65837021 1.55207979 -1 2 C-0.67 1.34 -0.34 0.68 0 0 Z " fill="#4E3141" transform="translate(99,57)"/>
<path d="M0 0 C2.375 0.3125 2.375 0.3125 5 1 C7.36574234 4.5486135 7.10865265 5.5764525 6.625 9.6875 C6.45871094 11.17830078 6.45871094 11.17830078 6.2890625 12.69921875 C6.14597656 13.83810547 6.14597656 13.83810547 6 15 C7.093125 15.268125 8.18625 15.53625 9.3125 15.8125 C14.05093479 17.33843663 14.05093479 17.33843663 16 20 C16.3984375 22.55859375 16.3984375 22.55859375 16.375 25.4375 C16.38273437 26.38496094 16.39046875 27.33242187 16.3984375 28.30859375 C15.93497014 31.43927036 15.3236383 32.85076281 13 35 C10.73828125 35.171875 10.73828125 35.171875 8.3125 34.75 C7.50425781 34.62109375 6.69601563 34.4921875 5.86328125 34.359375 C5.24839844 34.24078125 4.63351563 34.1221875 4 34 C4 33.67 4 33.34 4 33 C4.95712891 32.80083984 4.95712891 32.80083984 5.93359375 32.59765625 C6.75988281 32.42105469 7.58617187 32.24445313 8.4375 32.0625 C9.26121094 31.88847656 10.08492187 31.71445313 10.93359375 31.53515625 C12.97661204 31.19247006 12.97661204 31.19247006 14 30 C14.31518215 27.96991509 14.31518215 27.96991509 14.375 25.625 C14.42398438 24.83351562 14.47296875 24.04203125 14.5234375 23.2265625 C14.18598071 20.80036391 14.18598071 20.80036391 11.90234375 19.22265625 C8.44555382 17.76643115 5.92464417 17.69925321 2.1875 17.8125 C1.02605469 17.83957031 -0.13539063 17.86664063 -1.33203125 17.89453125 C-2.21246094 17.92933594 -3.09289062 17.96414062 -4 18 C-3.07960937 17.55914062 -3.07960937 17.55914062 -2.140625 17.109375 C0.54082055 15.71972074 2.1403801 14.39093987 4 12 C4.66666667 9 4.66666667 9 4 6 C2.08333079 3.74934898 2.08333079 3.74934898 0 2 C0 1.34 0 0.68 0 0 Z " fill="#1E3F8A" transform="translate(150,122)"/>
<path d="M0 0 C5.23632698 1.48478081 8.25385948 4.83380073 11.9375 8.625 C12.55705566 9.25438477 13.17661133 9.88376953 13.81494141 10.53222656 C25 22.03398303 25 22.03398303 25 26 C21.66298871 24.8876629 21.32488536 24.37586492 19.5 21.5625 C17.74022333 18.86079158 16.8009287 17.8672858 14 16 C14 15.01 14 14.02 14 13 C11.61772756 11.71723792 9.49957984 10.85988235 6.875 10.125 C4 9 4 9 2.625 6.875 C2.41875 6.25625 2.2125 5.6375 2 5 C0.68 5.33 -0.64 5.66 -2 6 C-1.125 1.125 -1.125 1.125 0 0 Z " fill="#322959" transform="translate(179,30)"/>
<path d="M0 0 C2 2 2 2 2.22705078 4.24658203 C2.21657715 5.15778809 2.20610352 6.06899414 2.1953125 7.0078125 C2.18886719 7.99394531 2.18242187 8.98007813 2.17578125 9.99609375 C2.15902344 11.02863281 2.14226562 12.06117187 2.125 13.125 C2.11597656 14.16527344 2.10695312 15.20554687 2.09765625 16.27734375 C2.07403747 18.85179092 2.04110149 21.42578212 2 24 C1.67 24 1.34 24 1 24 C1 22.35 1 20.7 1 19 C0.34 19 -0.32 19 -1 19 C-1.33 21.97 -1.66 24.94 -2 28 C-2.99 28.33 -3.98 28.66 -5 29 C-4.67 26.36 -4.34 23.72 -4 21 C-3.34 21 -2.68 21 -2 21 C-2 15.72 -2 10.44 -2 5 C-1.34 5 -0.68 5 0 5 C0 3.35 0 1.7 0 0 Z " fill="#302368" transform="translate(220,99)"/>
<path d="M0 0 C3.375 0.0625 3.375 0.0625 7 1 C8.9375 4.0625 8.9375 4.0625 10 7 C6.66206131 8.98686827 4.67954041 10.03920425 0.75 9.8125 C-2 9 -2 9 -4 7 C-3.34 7 -2.68 7 -2 7 C-1.855625 6.030625 -1.71125 5.06125 -1.5625 4.0625 C-1 1 -1 1 0 0 Z " fill="#F7DB37" transform="translate(120,59)"/>
<path d="M0 0 C3.80484394 0.71340824 5.4511805 1.6388541 8 4.5625 C8.53302434 8.82669476 8.33764674 11.90992696 6 15.5625 C5.34 15.5625 4.68 15.5625 4 15.5625 C4.33 14.86125 4.66 14.16 5 13.4375 C6.09044562 10.30246884 6.15322643 7.85686818 6 4.5625 C1.28400182 3.63779447 -1.67265609 3.33326223 -6 5.5625 C-5.34 8.2025 -4.68 10.8425 -4 13.5625 C-1.69 14.2225 0.62 14.8825 3 15.5625 C3 15.8925 3 16.2225 3 16.5625 C-0.25 16.875 -0.25 16.875 -4 16.5625 C-6.9236459 14.0136805 -7.84909176 12.36734394 -8.5625 8.5625 C-7.62098494 3.54108633 -5.02141367 0.94151506 0 0 Z " fill="#C75AA5" transform="translate(80,104.4375)"/>
<path d="M0 0 C3.71317907 1.14770989 5.2692056 1.85342428 7.4375 5.0625 C8.07406938 8.80234509 7.69334708 10.57212644 5.9375 13.9375 C2.89581021 16.52293632 1.23742767 16.75260681 -2.65625 16.4765625 C-4.5625 16.0625 -4.5625 16.0625 -7.0625 14.5 C-9.17256839 11.07113886 -9.18741523 9.02029649 -8.5625 5.0625 C-5.90798953 1.20139386 -4.7398766 0.08315573 0 0 Z M-6.5625 4.0625 C-7.03937303 6.19503645 -7.03937303 6.19503645 -6.9375 8.5625 C-6.94523437 9.3565625 -6.95296875 10.150625 -6.9609375 10.96875 C-6.76371094 12.00515625 -6.76371094 12.00515625 -6.5625 13.0625 C-2.7121895 15.62937367 -0.97680237 14.89538724 3.4375 14.0625 C3.1075 13.4025 2.7775 12.7425 2.4375 12.0625 C3.0975 11.7325 3.7575 11.4025 4.4375 11.0625 C5.36207659 8.18243606 5.36207659 8.18243606 5.4375 5.0625 C4.50152685 3.04298938 4.50152685 3.04298938 2.4375 2.0625 C-1.64044425 1.63771414 -3.09326119 1.74967413 -6.5625 4.0625 Z " fill="#E6CC5C" transform="translate(123.5625,76.9375)"/>
<path d="M0 0 C1.65 0.33 3.3 0.66 5 1 C3.52778565 6.02230086 0.5510349 8.80278222 -3.125 12.3125 C-3.96998047 13.13717773 -3.96998047 13.13717773 -4.83203125 13.97851562 C-6.21462058 15.32595438 -7.60640916 16.66394273 -9 18 C-9.66 17.67 -10.32 17.34 -11 17 C-10.34 14.69 -9.68 12.38 -9 10 C-9.66 10 -10.32 10 -11 10 C-10.67 9.34 -10.34 8.68 -10 8 C-8.02 8.495 -8.02 8.495 -6 9 C-5.67 8.34 -5.34 7.68 -5 7 C-3.68 7 -2.36 7 -1 7 C-0.67 4.69 -0.34 2.38 0 0 Z " fill="#2D2260" transform="translate(195,178)"/>
<path d="M0 0 C0.70125 0.825 1.4025 1.65 2.125 2.5 C4.76799993 5.2570528 4.76799993 5.2570528 8.125 5.4375 C11.19080542 5.17844932 11.19080542 5.17844932 14 3 C14.66 2.01 15.32 1.02 16 0 C16.46707789 4.01686987 16.32150834 5.56501812 13.875 8.875 C11 11 11 11 8 11.625 C3.9256644 10.77618008 2.45594125 9.32274404 0 6 C-0.3125 2.6875 -0.3125 2.6875 0 0 Z " fill="#2B96D1" transform="translate(139,128)"/>
<path d="M0 0 C1.08512539 3.23284451 0.96507384 4.87315805 -0.40625 7.9765625 C-0.89931641 9.10022217 -0.89931641 9.10022217 -1.40234375 10.24658203 C-1.76457031 11.03145996 -2.12679687 11.81633789 -2.5 12.625 C-2.86222656 13.42663574 -3.22445312 14.22827148 -3.59765625 15.05419922 C-6.44228705 21.18081042 -9.75765712 26.72358605 -14 32 C-14 31.01 -14 30.02 -14 29 C-14.31421071 26.99690671 -14.6451046 24.99628664 -15 23 C-11.25 20 -11.25 20 -9 20 C-5.47488808 15.5936101 -4.89358587 10.41407912 -4 5 C-3.34 5 -2.68 5 -2 5 C-2 4.01 -2 3.02 -2 2 C-1.34 2 -0.68 2 0 2 C0 1.34 0 0.68 0 0 Z " fill="#261F53" transform="translate(216,146)"/>
<path d="M0 0 C6.92406112 0.15386802 13.86959998 2.92591535 20 6 C20.33 6.99 20.66 7.98 21 9 C17.70438407 10.37956016 15.72500893 11.1611131 12.1875 10.375 C10 9 10 9 9 5 C5.37 4.01 1.74 3.02 -2 2 C-1.34 1.34 -0.68 0.68 0 0 Z " fill="#362C66" transform="translate(142,12)"/>
<path d="M0 0 C0.53625 0.37125 1.0725 0.7425 1.625 1.125 C1.625 2.775 1.625 4.425 1.625 6.125 C0.965 6.125 0.305 6.125 -0.375 6.125 C-0.375 6.785 -0.375 7.445 -0.375 8.125 C-1.65375 8.186875 -2.9325 8.24875 -4.25 8.3125 C-4.96929687 8.34730469 -5.68859375 8.38210937 -6.4296875 8.41796875 C-7.07164063 8.32128906 -7.71359375 8.22460938 -8.375 8.125 C-9.035 7.135 -9.695 6.145 -10.375 5.125 C-9.75 3.25 -9.75 3.25 -8.375 1.125 C-3.40202703 -1.25337838 -3.40202703 -1.25337838 0 0 Z " fill="#19ABE2" transform="translate(130.375,125.875)"/>
<path d="M0 0 C1.2065625 0.0309375 1.2065625 0.0309375 2.4375 0.0625 C2.4375 0.7225 2.4375 1.3825 2.4375 2.0625 C3.7575 2.0625 5.0775 2.0625 6.4375 2.0625 C6.5625 4.4375 6.5625 4.4375 6.4375 7.0625 C4.4375 9.0625 4.4375 9.0625 0.875 9.25 C-2.5625 9.0625 -2.5625 9.0625 -3.5625 8.0625 C-3.6875 4.5625 -3.6875 4.5625 -3.5625 1.0625 C-2.5625 0.0625 -2.5625 0.0625 0 0 Z " fill="#1BA8E5" transform="translate(135.5625,107.9375)"/>
<path d="M0 0 C3.95829492 3.39032766 5.68802818 7.06278501 7.6875 11.75 C8.14866211 12.76707031 8.14866211 12.76707031 8.61914062 13.8046875 C10.68883967 18.5690713 11.5647967 22.82398209 12 28 C10.42015087 25.98928293 9.05733014 24.11803264 7.9375 21.8125 C7.13297839 19.82107843 7.13297839 19.82107843 5 19 C4.65048379 17.00276453 4.32173372 15.00189873 4 13 C3.15170219 9.94511802 2.27783635 6.90417352 1 4 C0.34 3.67 -0.32 3.34 -1 3 C-0.67 2.01 -0.34 1.02 0 0 Z " fill="#342B62" transform="translate(206,60)"/>
<path d="M0 0 C0.66 0.33 1.32 0.66 2 1 C-3.63851312 5.36487251 -9.43720801 8.90975171 -15.875 11.9375 C-16.51703369 12.24373291 -17.15906738 12.54996582 -17.82055664 12.86547852 C-21.19162769 14.40559095 -23.21910934 15 -27 15 C-27 14.34 -27 13.68 -27 13 C-26.34 13 -25.68 13 -25 13 C-24.67 12.01 -24.34 11.02 -24 10 C-20.25112819 7.96489816 -17.19646112 7.91071359 -13 8 C-10.73433657 7.56058477 -10.73433657 7.56058477 -9 7 C-9 6.34 -9 5.68 -9 5 C-8.443125 4.731875 -7.88625 4.46375 -7.3125 4.1875 C-4.90178463 2.99670459 -4.90178463 2.99670459 -2.375 1.3125 C-1.59125 0.879375 -0.8075 0.44625 0 0 Z " fill="#2A2258" transform="translate(176,201)"/>
<path d="M0 0 C2.875 2.0625 2.875 2.0625 5 5 C5.63007693 8.99048721 5.63021887 11.01685857 3.4375 14.4375 C0.05782196 16.60396028 -2.05983987 16.56288002 -6 16 C-8.4375 14 -8.4375 14 -10 12 C-9.01 12 -8.02 12 -7 12 C-6.67 12.33 -6.34 12.66 -6 13 C-4.65252916 13.23075082 -3.29622435 13.41153063 -1.9375 13.5625 C-0.638125 13.706875 0.66125 13.85125 2 14 C2.20625 12.741875 2.4125 11.48375 2.625 10.1875 C2.74101563 9.47980469 2.85703125 8.77210937 2.9765625 8.04296875 C3.19577848 5.68244176 3.19577848 5.68244176 1 3 C-2.58357241 2.74984127 -2.58357241 2.74984127 -6 3 C-6.99 5.31 -7.98 7.62 -9 10 C-9.33 10 -9.66 10 -10 10 C-10.48468708 3.57789614 -10.48468708 3.57789614 -8.375 1.0625 C-5.24378669 -0.33830596 -3.39978055 -0.55506621 0 0 Z " fill="#C750A2" transform="translate(102,105)"/>
<path d="M0 0 C0.66 0.66 1.32 1.32 2 2 C2.66 1.67 3.32 1.34 4 1 C4.66 3.31 5.32 5.62 6 8 C9.3 8.66 12.6 9.32 16 10 C15.67 10.66 15.34 11.32 15 12 C13.18757948 12.02687279 11.37504767 12.04633715 9.5625 12.0625 C8.55316406 12.07410156 7.54382813 12.08570312 6.50390625 12.09765625 C4 12 4 12 3 11 C1.68 11.33 0.36 11.66 -1 12 C-0.67 8.04 -0.34 4.08 0 0 Z " fill="#4C3458" transform="translate(111,83)"/>
<path d="M0 0 C0.33 0.66 0.66 1.32 1 2 C-0.98 2 -2.96 2 -5 2 C-5.33 3.32 -5.66 4.64 -6 6 C-6.66 6 -7.32 6 -8 6 C-8.33 5.01 -8.66 4.02 -9 3 C-10.96822886 4.96822886 -10.66248381 8.34808709 -11 11 C-10.34 11 -9.68 11 -9 11 C-9 11.66 -9 12.32 -9 13 C-7.741875 13 -6.48375 13 -5.1875 13 C-2.79166667 13 -0.39583333 13 2 13 C0.4375 14.5625 0.4375 14.5625 -2 16 C-6.21079371 16 -8.27012317 15.6203953 -11.5 12.875 C-13.50686067 9.02851705 -13.27176524 7.11453459 -12 3 C-8.24526879 -1.41733083 -5.46299055 -1.47080515 0 0 Z " fill="#DBC364" transform="translate(108,78)"/>
<path d="M0 0 C2.12833423 1.62254186 2.90136515 2.50949158 3.43359375 5.15625 C3.44398254 11.38952401 3.44398254 11.38952401 1.5 14.0625 C-2.07406753 15.40277532 -5.243588 15.83133708 -9 15 C-11.5 12.75 -11.5 12.75 -13 10 C-13 8.68 -13 7.36 -13 6 C-12.34 6 -11.68 6 -11 6 C-10.34 7.98 -9.68 9.96 -9 12 C-4.40920297 13.15149016 -4.40920297 13.15149016 -0.0625 11.9375 C1.46880951 9.14511207 1.39907251 7.12606798 1 4 C-2.08888522 1.94074319 -2.70935927 1.7609626 -6.1875 1.875 C-7.445625 1.91625 -8.70375 1.9575 -10 2 C-7.88538617 -2.22922765 -3.89903349 -0.97475837 0 0 Z " fill="#298BCB" transform="translate(162,140)"/>
<path d="M0 0 C0.99 0 1.98 0 3 0 C3 1.65 3 3.3 3 5 C2.01 5 1.02 5 0 5 C0 5.99 0 6.98 0 8 C1.65 8.33 3.3 8.66 5 9 C5 9.66 5 10.32 5 11 C2.03 11.66 -0.94 12.32 -4 13 C-4.33 12.34 -4.66 11.68 -5 11 C-5.33 11.33 -5.66 11.66 -6 12 C-7.99958364 12.04080783 -10.00045254 12.04254356 -12 12 C-12 11.34 -12 10.68 -12 10 C-8.97265625 9.26757812 -8.97265625 9.26757812 -5.9453125 8.53515625 C-3.9414343 8.05153008 -3.9414343 8.05153008 -2 7 C-1.26924352 4.6859378 -0.59861742 2.35171131 0 0 Z " fill="#16387F" transform="translate(145,112)"/>
<path d="M0 0 C0.66 0 1.32 0 2 0 C2.28875 1.093125 2.5775 2.18625 2.875 3.3125 C3.81893204 7.04013845 3.81893204 7.04013845 6 10 C5.34 10 4.68 10 4 10 C3.67 10.99 3.34 11.98 3 13 C2.67 12.67 2.34 12.34 2 12 C-2.0642508 12.20438426 -2.0642508 12.20438426 -6 13 C-8.12508244 16.18762365 -8.5020163 18.26512223 -9 22 C-9.33 22 -9.66 22 -10 22 C-10 19.03 -10 16.06 -10 13 C-2.71428571 8.42857143 -2.71428571 8.42857143 2 9 C2 8.34 2 7.68 2 7 C1.34 7 0.68 7 0 7 C0 4.69 0 2.38 0 0 Z " fill="#233C85" transform="translate(127,112)"/>
<path d="M0 0 C0.598125 0.20625 1.19625 0.4125 1.8125 0.625 C1.8125 1.285 1.8125 1.945 1.8125 2.625 C2.4725 2.955 3.1325 3.285 3.8125 3.625 C3.4825 4.285 3.1525 4.945 2.8125 5.625 C2.1525 5.625 1.4925 5.625 0.8125 5.625 C0.8125 17.835 0.8125 30.045 0.8125 42.625 C0.4825 42.625 0.1525 42.625 -0.1875 42.625 C-0.1875 29.425 -0.1875 16.225 -0.1875 2.625 C-1.8375 2.295 -3.4875 1.965 -5.1875 1.625 C-2.1875 -0.375 -2.1875 -0.375 0 0 Z " fill="#443273" transform="translate(68.1875,57.375)"/>
<path d="M0 0 C1 3 1 3 -0.5 6.1875 C-3 9 -3 9 -6.5625 9.6875 C-10 9 -10 9 -12 6.6875 C-13 4 -13 4 -12 1 C-11.34 1.66 -10.68 2.32 -10 3 C-7.34462628 3.56520003 -4.70855287 3.73788198 -2 4 C-2 3.34 -2 2.68 -2 2 C-1.34 2 -0.68 2 0 2 C0 1.34 0 0.68 0 0 Z " fill="#1793CE" transform="translate(132,130)"/>
<path d="M0 0 C0.495 0.495 0.99 0.99 1.5 1.5 C5.11630158 3.66978095 7.82231616 3.20888419 12 3 C12 3.66 12 4.32 12 5 C10.02 5.33 8.04 5.66 6 6 C6.33 6.66 6.66 7.32 7 8 C7.203125 10.05859375 7.203125 10.05859375 7.25 12.4375 C7.28867188 13.61119141 7.28867188 13.61119141 7.328125 14.80859375 C6.92823089 17.47931509 6.05300878 18.31977439 4 20 C3.34 19.67 2.68 19.34 2 19 C2.7425 18.195625 2.7425 18.195625 3.5 17.375 C5.40263813 14.36248963 5.29852689 12.507691 5 9 C4.67 8.01 4.34 7.02 4 6 C2.56359829 5.80426392 1.12580496 5.61872184 -0.3125 5.4375 C-1.11300781 5.33308594 -1.91351563 5.22867188 -2.73828125 5.12109375 C-5.16817116 4.85244822 -5.16817116 4.85244822 -8 6 C-8 5.34 -8 4.68 -8 4 C-5.29120665 2.64560332 -2.99066732 2.93498549 0 3 C0 2.01 0 1.02 0 0 Z " fill="#183D86" transform="translate(118,135)"/>
<path d="M0 0 C0.99 0.33 1.98 0.66 3 1 C3 2.65 3 4.3 3 6 C3.66 6 4.32 6 5 6 C5.33 6.66 5.66 7.32 6 8 C8.01669827 9.13350534 8.01669827 9.13350534 10 10 C10 10.66 10 11.32 10 12 C11.61457079 13.43581474 13.29219075 14.80144783 15 16.125 C15.928125 16.84945312 16.85625 17.57390625 17.8125 18.3203125 C18.534375 18.87460938 19.25625 19.42890625 20 20 C12.42720201 20 4.54305784 9.76716158 -0.63671875 4.62890625 C-2 3 -2 3 -2 1 C-1.34 0.67 -0.68 0.34 0 0 Z " fill="#312859" transform="translate(36,183)"/>
<path d="M0 0 C0.33 1.32 0.66 2.64 1 4 C0.34 4 -0.32 4 -1 4 C-1 4.99 -1 5.98 -1 7 C-3.76250036 8.38125018 -5.94731099 8.19079306 -9 8 C-9.66 7.34 -10.32 6.68 -11 6 C-10.625 3.875 -10.625 3.875 -10 2 C-8.72125 2.04125 -7.4425 2.0825 -6.125 2.125 C-3.98128508 2.24212873 -3.98128508 2.24212873 -2 2 C-1.34 1.34 -0.68 0.68 0 0 Z " fill="#0E95D0" transform="translate(142,114)"/>
<path d="M0 0 C0.33 0.99 0.66 1.98 1 3 C1.66 3 2.32 3 3 3 C3 3.66 3 4.32 3 5 C6.63 5 10.26 5 14 5 C14 4.34 14 3.68 14 3 C14.66 3.33 15.32 3.66 16 4 C15.67 4.99 15.34 5.98 15 7 C12.09458095 7.96847302 10.03362546 8.19582812 7 8.25 C5.700625 8.28867188 5.700625 8.28867188 4.375 8.328125 C2 8 2 8 0.16796875 6.65234375 C-1 5 -1 5 -0.6875 2.3125 C-0.460625 1.549375 -0.23375 0.78625 0 0 Z " fill="#382A71" transform="translate(129,152)"/>
<path d="M0 0 C0.33 0 0.66 0 1 0 C1 9.9 1 19.8 1 30 C0.67 30 0.34 30 0 30 C-0.33885038 27.47980028 -0.67120335 24.95901484 -1 22.4375 C-1.14308594 21.38079102 -1.14308594 21.38079102 -1.2890625 20.30273438 C-1.86666417 15.82632145 -2.09489383 11.51338762 -2 7 C-1.34 7 -0.68 7 0 7 C0 4.69 0 2.38 0 0 Z " fill="#442F84" transform="translate(59,81)"/>
<path d="M0 0 C0.99 0 1.98 0 3 0 C3 1.65 3 3.3 3 5 C3.66 5 4.32 5 5 5 C5.763125 5.804375 6.52625 6.60875 7.3125 7.4375 C10.07654563 10.07298537 11.28837448 10.68186067 15 11 C15 11.33 15 11.66 15 12 C8.9453125 12.9765625 8.9453125 12.9765625 7 13 C6.34 12.34 5.68 11.68 5 11 C4.154375 10.21625 3.30875 9.4325 2.4375 8.625 C-0.78223496 5.15759312 -0.78223496 5.15759312 -1 2 C-0.67 1.34 -0.34 0.68 0 0 Z " fill="#412C5B" transform="translate(91,83)"/>
<path d="M0 0 C0.99 0.33 1.98 0.66 3 1 C1.32258336 4.96480297 -1.12126862 7.84041677 -4 11 C-4.99 11.33 -5.98 11.66 -7 12 C-7.66 11.67 -8.32 11.34 -9 11 C-7.59155282 7.78475695 -5.89655214 5.67816132 -3.375 3.25 C-2.74335937 2.63640625 -2.11171875 2.0228125 -1.4609375 1.390625 C-0.73777344 0.70226563 -0.73777344 0.70226563 0 0 Z " fill="#392F6A" transform="translate(43,35)"/>
<path d="M0 0 C0.99 0 1.98 0 3 0 C3 0.66 3 1.32 3 2 C3.598125 1.649375 4.19625 1.29875 4.8125 0.9375 C7 0 7 0 10 1 C9.67 2.98 9.34 4.96 9 7 C2.25 6.25 2.25 6.25 0 4 C0 2.68 0 1.36 0 0 Z " fill="#1BAAE2" transform="translate(140,127)"/>
<path d="M0 0 C0.33 0 0.66 0 1 0 C1 7.59 1 15.18 1 23 C0.01 23 -0.98 23 -2 23 C-1.86183041 19.35383329 -1.71318466 15.70816926 -1.5625 12.0625 C-1.50352539 10.50112305 -1.50352539 10.50112305 -1.44335938 8.90820312 C-1.40146484 7.91884766 -1.35957031 6.92949219 -1.31640625 5.91015625 C-1.27974854 4.99371338 -1.24309082 4.07727051 -1.20532227 3.13305664 C-1 1 -1 1 0 0 Z " fill="#442E84" transform="translate(59,112)"/>
<path d="M0 0 C0.33 0.66 0.66 1.32 1 2 C1.99 2.33 2.98 2.66 4 3 C4 3.66 4 4.32 4 5 C6.97 5.495 6.97 5.495 10 6 C10 6.99 10 7.98 10 9 C10.99 9.33 11.98 9.66 13 10 C5.88991889 10.4820394 5.88991889 10.4820394 2 8.375 C0 6 0 6 -0.3125 2.75 C-0.209375 1.8425 -0.10625 0.935 0 0 Z " fill="#1793D3" transform="translate(128,145)"/>
<path d="M0 0 C0.66 0.99 1.32 1.98 2 3 C4.56282742 3.72965366 4.56282742 3.72965366 7 4 C6.67 4.99 6.34 5.98 6 7 C3.03 6.505 3.03 6.505 0 6 C0.66 7.98 1.32 9.96 2 12 C4.64 12.33 7.28 12.66 10 13 C10 13.33 10 13.66 10 14 C3.73278237 14.48209366 3.73278237 14.48209366 0.625 12.4375 C-1.49915469 9.25126797 -1.8616853 6.80365414 -2 3 C-1.34 2.01 -0.68 1.02 0 0 Z " fill="#E0C356" transform="translate(97,60)"/>
<path d="M0 0 C2.9375 2.1875 2.9375 2.1875 5 5 C5.3125 7.8125 5.3125 7.8125 5 10 C3 7 3 7 2.3125 4.875 C1.01973906 2.57184976 1.01973906 2.57184976 -2.625 2.25 C-3.73875 2.1675 -4.8525 2.085 -6 2 C-6.66 3.98 -7.32 5.96 -8 8 C-8.66 8 -9.32 8 -10 8 C-9.67 9.65 -9.34 11.3 -9 13 C-9.66 12.67 -10.32 12.34 -11 12 C-11.48192771 4.77108434 -11.48192771 4.77108434 -9.4375 1.5 C-6.00863886 -0.61006839 -3.95779649 -0.62491523 0 0 Z " fill="#E4CC7B" transform="translate(126,58)"/>
<path d="M0 0 C3.90604537 1.26682552 5.90166803 2.43283565 8 6 C8.6875 8.25 8.6875 8.25 9 10 C6.625 9.75 6.625 9.75 4 9 C2.6875 6.9375 2.6875 6.9375 2 5 C0.68 5.33 -0.64 5.66 -2 6 C-1.125 1.125 -1.125 1.125 0 0 Z " fill="#362B66" transform="translate(179,30)"/>
<path d="M0 0 C1.32 0.33 2.64 0.66 4 1 C3.67 1.66 3.34 2.32 3 3 C5.97 3.495 5.97 3.495 9 4 C9 4.66 9 5.32 9 6 C9.99 6.33 10.98 6.66 12 7 C11.67 7.33 11.34 7.66 11 8 C5.56851267 7.63176357 1.79187538 6.75532834 -3 4 C-2.01 2.68 -1.02 1.36 0 0 Z " fill="#322863" transform="translate(77,210)"/>
<path d="M0 0 C0.33 0 0.66 0 1 0 C1.28875 1.093125 1.5775 2.18625 1.875 3.3125 C2.81893204 7.04013845 2.81893204 7.04013845 5 10 C9.56228926 10.36792655 13.07242087 10.61838609 17 8 C16.34 9.65 15.68 11.3 15 13 C11.37 13 7.74 13 4 13 C3.67 12.01 3.34 11.02 3 10 C2.34 10 1.68 10 1 10 C-0.60725635 6.78548731 -0.05748185 3.56387464 0 0 Z " fill="#5C246B" transform="translate(80,127)"/>
<path d="M0 0 C0.66 0.33 1.32 0.66 2 1 C1.39009109 4.55780196 0.4216319 7.6828589 -1 11 C-3.97 10.01 -6.94 9.02 -10 8 C-10 7.34 -10 6.68 -10 6 C-7.03 6.495 -7.03 6.495 -4 7 C-4 6.34 -4 5.68 -4 5 C-3.34 5 -2.68 5 -2 5 C-1.34 3.35 -0.68 1.7 0 0 Z " fill="#E13E8F" transform="translate(85,110)"/>
<path d="M0 0 C-0.33 1.65 -0.66 3.3 -1 5 C-8.75 5.125 -8.75 5.125 -11 4 C-10.67 3.01 -10.34 2.02 -10 1 C-8.0625 0.375 -8.0625 0.375 -6 0 C-3.50907189 -1.24546405 -2.58919267 -0.7767578 0 0 Z " fill="#16ACE6" transform="translate(121,145)"/>
<path d="M0 0 C0.66 0 1.32 0 2 0 C2.3125 3.3125 2.3125 3.3125 2 7 C-0.64755663 9.34497873 -2.2936993 9.95291329 -5.8125 10.1875 C-6.534375 10.125625 -7.25625 10.06375 -8 10 C-8.33 9.01 -8.66 8.02 -9 7 C-7.88625 6.5875 -6.7725 6.175 -5.625 5.75 C-3.00679305 4.64453484 -2.16506911 4.25119213 -0.5625 1.8125 C-0.376875 1.214375 -0.19125 0.61625 0 0 Z " fill="#E13E92" transform="translate(95,127)"/>
<path d="M0 0 C3.48435804 4.59301742 5.26283775 7.08615072 5 13 C4.01 12.67 3.02 12.34 2 12 C2 11.34 2 10.68 2 10 C0.68 10.99 -0.64 11.98 -2 13 C-2 11.68 -2 10.36 -2 9 C-1.34 9 -0.68 9 0 9 C-0.185625 7.700625 -0.37125 6.40125 -0.5625 5.0625 C-0.87890625 2.84765625 -0.87890625 2.84765625 -1 1 C-0.67 0.67 -0.34 0.34 0 0 Z " fill="#422E86" transform="translate(133,81)"/>
<path d="M0 0 C1.98 0 3.96 0 6 0 C5.01 1.485 5.01 1.485 4 3 C4.33 3.66 4.66 4.32 5 5 C4.34 5 3.68 5 3 5 C3 5.66 3 6.32 3 7 C1.35 7.33 -0.3 7.66 -2 8 C-2 7.34 -2 6.68 -2 6 C-2.66 5.67 -3.32 5.34 -4 5 C-3.67 4.34 -3.34 3.68 -3 3 C-2.34 3 -1.68 3 -1 3 C-0.67 2.01 -0.34 1.02 0 0 Z " fill="#32256C" transform="translate(75,15)"/>
<path d="M0 0 C4.95 0.99 4.95 0.99 10 2 C10 1.34 10 0.68 10 0 C10.99 0 11.98 0 13 0 C11.84826645 2.46800047 10.95216435 4.04783565 9 6 C5.375 5.625 5.375 5.625 2 5 C1.34 3.35 0.68 1.7 0 0 Z " fill="#0898D4" transform="translate(151,148)"/>
<path d="M0 0 C0.6875 1.75 0.6875 1.75 1 4 C-0.0625 6.25 -0.0625 6.25 -2 8 C-5.12623255 8.31900332 -7.17116253 8.41441874 -10 7 C-10 6.34 -10 5.68 -10 5 C-10.66 5 -11.32 5 -12 5 C-11.67 4.01 -11.34 3.02 -11 2 C-11 2.66 -11 3.32 -11 4 C-9.54054712 3.91291331 -8.08234132 3.80473093 -6.625 3.6875 C-5.81289062 3.62949219 -5.00078125 3.57148437 -4.1640625 3.51171875 C-1.62078662 3.17009472 -1.62078662 3.17009472 0 0 Z " fill="#F1C720" transform="translate(109,84)"/>
<path d="M0 0 C0.99 0.33 1.98 0.66 3 1 C2.814375 1.598125 2.62875 2.19625 2.4375 2.8125 C1.77906313 5.16408762 1.77906313 5.16408762 3 8 C2.5625 10.1875 2.5625 10.1875 2 12 C0.0625 11.375 0.0625 11.375 -2 10 C-2.9375 7.125 -2.9375 7.125 -3 4 C-1.5625 1.625 -1.5625 1.625 0 0 Z " fill="#332771" transform="translate(29,51)"/>
<path d="M0 0 C0.33 0 0.66 0 1 0 C1.28875 1.11375 1.5775 2.2275 1.875 3.375 C2.69241329 7.00291092 2.69241329 7.00291092 5 9 C7.65537372 9.56520003 10.29144713 9.73788198 13 10 C13 10.66 13 11.32 13 12 C8.71 12 4.42 12 0 12 C0 8.04 0 4.08 0 0 Z " fill="#1F408B" transform="translate(107,145)"/>
<path d="M0 0 C0.33 0 0.66 0 1 0 C0.67 2.97 0.34 5.94 0 9 C-0.66 9 -1.32 9 -2 9 C-2 9.66 -2 10.32 -2 11 C-5.63 11 -9.26 11 -13 11 C-13 10.34 -13 9.68 -13 9 C-13.66 9 -14.32 9 -15 9 C-14.67 8.34 -14.34 7.68 -14 7 C-13.34 7.33 -12.68 7.66 -12 8 C-7.96751158 8.32264394 -7.96751158 8.32264394 -4 8 C-1.42546779 5.67461607 -0.6028174 3.37577742 0 0 Z " fill="#1D3F84" transform="translate(145,146)"/>
<path d="M0 0 C0.33 0.66 0.66 1.32 1 2 C2.62463842 2.05395478 4.24978541 2.09277195 5.875 2.125 C6.77992187 2.14820313 7.68484375 2.17140625 8.6171875 2.1953125 C11.18806994 2.24324836 11.18806994 2.24324836 13 0 C13 4 13 4 11.5625 5.875 C7.54119804 7.64044964 4.0839045 6.21295454 0 5 C0 3.35 0 1.7 0 0 Z " fill="#0898D6" transform="translate(109,147)"/>
<path d="M0 0 C3.3 0 6.6 0 10 0 C10 0.99 10 1.98 10 3 C10.99 3.66 11.98 4.32 13 5 C12.67 6.32 12.34 7.64 12 9 C11.278125 8.360625 10.55625 7.72125 9.8125 7.0625 C7.20407711 4.83689451 7.20407711 4.83689451 4.3125 4.5 C3.1678125 4.2525 3.1678125 4.2525 2 4 C1.34 2.68 0.68 1.36 0 0 Z " fill="#453344" transform="translate(118,73)"/>
<path d="M0 0 C4.20626034 1.50223584 5.73900021 4.28550034 8 8 C5.36 8.33 2.72 8.66 0 9 C-1.125 3.375 -1.125 3.375 0 0 Z " fill="#362970" transform="translate(194,47)"/>
<path d="M0 0 C0.99 0 1.98 0 3 0 C3.33461467 1.47887733 3.66765667 2.95811058 4 4.4375 C4.185625 5.26121094 4.37125 6.08492187 4.5625 6.93359375 C5 9 5 9 5 10 C2.69 10 0.38 10 -2 10 C-1.34 6.7 -0.68 3.4 0 0 Z " fill="#3E3182" transform="translate(135,128)"/>
<path d="M0 0 C-3 2 -3 2 -7 3 C-7 6.96 -7 10.92 -7 15 C-11 11 -11 11 -11.0625 7.5 C-9.30634672 1.7150245 -6.05674106 -0.69219898 0 0 Z " fill="#BE59A4" transform="translate(92,122)"/>
<path d="M0 0 C2.475 0.99 2.475 0.99 5 2 C5 4.64 5 7.28 5 10 C4.01 10.495 4.01 10.495 3 11 C3 9.68 3 8.36 3 7 C1.02 7.99 1.02 7.99 -1 9 C-1 7.68 -1 6.36 -1 5 C-0.34 5 0.32 5 1 5 C1 4.01 1 3.02 1 2 C0.34 1.67 -0.32 1.34 -1 1 C-0.67 0.67 -0.34 0.34 0 0 Z " fill="#F9DB41" transform="translate(106,79)"/>
<path d="M0 0 C4.75 0.75 4.75 0.75 7 3 C7.30078125 5.4609375 7.30078125 5.4609375 7.3125 8.375 C7.32925781 9.33148438 7.34601563 10.28796875 7.36328125 11.2734375 C6.9409624 14.4430994 6.35194153 15.83455603 4 18 C1.73828125 18.171875 1.73828125 18.171875 -0.6875 17.75 C-1.89986328 17.55664062 -1.89986328 17.55664062 -3.13671875 17.359375 C-3.75160156 17.24078125 -4.36648437 17.1221875 -5 17 C-5 16.67 -5 16.34 -5 16 C-4.36191406 15.86722656 -3.72382813 15.73445312 -3.06640625 15.59765625 C-2.24011719 15.42105469 -1.41382813 15.24445313 -0.5625 15.0625 C0.26121094 14.88847656 1.08492187 14.71445313 1.93359375 14.53515625 C3.97661204 14.19247006 3.97661204 14.19247006 5 13 C5.43334269 9.94802936 5.500309 7.04443352 5 4 C2.6816144 1.39089037 2.6816144 1.39089037 0 0 Z " fill="#1D488F" transform="translate(159,139)"/>
<path d="M0 0 C1.485 0.99 1.485 0.99 3 2 C7.65417169 2.34222445 7.65417169 2.34222445 12 1 C12 1.99 12 2.98 12 4 C11.34 4 10.68 4 10 4 C9.67 4.99 9.34 5.98 9 7 C5.625 6.6875 5.625 6.6875 2 6 C0 3 0 3 0 0 Z " fill="#F0C715" transform="translate(97,66)"/>
<path d="M0 0 C0 0.66 0 1.32 0 2 C-0.99 2.33 -1.98 2.66 -3 3 C-3.99 4.485 -3.99 4.485 -5 6 C-6.65 5.67 -8.3 5.34 -10 5 C-10 4.01 -10 3.02 -10 2 C-6.3558226 -0.4294516 -4.28758728 -0.16179575 0 0 Z " fill="#332867" transform="translate(62,26)"/>
<path d="M0 0 C0.33 0.99 0.66 1.98 1 3 C-0.4375 5.6875 -0.4375 5.6875 -2 8 C-2.99 7.67 -3.98 7.34 -5 7 C-4.34 5.68 -3.68 4.36 -3 3 C-4.65 2.67 -6.3 2.34 -8 2 C-8 1.34 -8 0.68 -8 0 C-5.13822943 -1.43088528 -3.06624227 -0.59991697 0 0 Z " fill="#E75AA3" transform="translate(95,124)"/>
<path d="M0 0 C0.66 0.33 1.32 0.66 2 1 C1.125 5.75 1.125 5.75 0 8 C-1.27875 8.061875 -2.5575 8.12375 -3.875 8.1875 C-4.59429687 8.22230469 -5.31359375 8.25710937 -6.0546875 8.29296875 C-6.69664063 8.19628906 -7.33859375 8.09960938 -8 8 C-8.66 7.01 -9.32 6.02 -10 5 C-8.72125 4.9175 -7.4425 4.835 -6.125 4.75 C-3.94666582 4.54130069 -3.94666582 4.54130069 -2 4 C-0.4100567 2.07935207 -0.4100567 2.07935207 0 0 Z " fill="#DE3E90" transform="translate(104,111)"/>
<path d="M0 0 C1.6415049 3.2830098 0.51888624 6.42545033 0 10 C-0.99 10.33 -1.98 10.66 -3 11 C-3.33 11.99 -3.66 12.98 -4 14 C-4.29787234 5.21276596 -4.29787234 5.21276596 -2 1 C-1.34 0.67 -0.68 0.34 0 0 Z " fill="#372E64" transform="translate(14,85)"/>
<path d="M0 0 C3.63 0 7.26 0 11 0 C10.34 1.32 9.68 2.64 9 4 C6.0625 4.9375 6.0625 4.9375 3 5 C1.125 3.6875 1.125 3.6875 0 2 C0 1.34 0 0.68 0 0 Z " fill="#049AD3" transform="translate(142,133)"/>
<path d="M0 0 C0.33 0 0.66 0 1 0 C1.24339399 6.44994077 0.77603255 12.76195973 -1 19 C-1.66 19.33 -2.32 19.66 -3 20 C-3 15.71 -3 11.42 -3 7 C-2.01 7 -1.02 7 0 7 C0 4.69 0 2.38 0 0 Z " fill="#281E55" transform="translate(220,125)"/>
<path d="M0 0 C1.485 0.99 1.485 0.99 3 2 C5.32108669 2.70812814 7.65377147 3.38024152 10 4 C9.67 5.32 9.34 6.64 9 8 C9 7.34 9 6.68 9 6 C7.8553125 6.2784375 7.8553125 6.2784375 6.6875 6.5625 C4 7 4 7 1 6 C0.67 4.02 0.34 2.04 0 0 Z " fill="#3B2970" transform="translate(72,120)"/>
<path d="M0 0 C1.32 0.33 2.64 0.66 4 1 C4 1.66 4 2.32 4 3 C6.475 3.99 6.475 3.99 9 5 C8.34 8.3 7.68 11.6 7 15 C6.34 14.67 5.68 14.34 5 14 C5.0825 12.9275 5.165 11.855 5.25 10.75 C5.37581372 6.98087896 5.37581372 6.98087896 3.0625 4.75 C2.381875 4.1725 1.70125 3.595 1 3 C0.67 2.01 0.34 1.02 0 0 Z " fill="#5C2B76" transform="translate(82,102)"/>
<path d="M0 0 C1.32 0.66 2.64 1.32 4 2 C3.34 4.31 2.68 6.62 2 9 C0.35 9 -1.3 9 -3 9 C-2.44271087 5.65626525 -1.64826111 2.96687001 0 0 Z " fill="#352870" transform="translate(20,71)"/>
<path d="M0 0 C1.5 1.25 1.5 1.25 3 3 C3 4.32 3 5.64 3 7 C3.66 7.66 4.32 8.32 5 9 C2.13275314 8.42655063 1.1385485 8.1385485 -1 6 C-1.99 6 -2.98 6 -4 6 C-6.1875 4 -6.1875 4 -8 2 C-3.25 2.875 -3.25 2.875 -1 4 C-0.67 2.68 -0.34 1.36 0 0 Z " fill="#362971" transform="translate(53,192)"/>
<path d="M0 0 C-3.36823336 2.96404536 -6.64124157 4.04899816 -11 5 C-11.99 4.67 -12.98 4.34 -14 4 C-14 3.34 -14 2.68 -14 2 C-9.15758367 0.66416101 -5.06562383 -0.25328119 0 0 Z " fill="#362D60" transform="translate(98,10)"/>
<path d="M0 0 C0.33 0 0.66 0 1 0 C1.33609819 3.61305558 1.19511045 5.62603831 -0.5 8.875 C-3.15800044 11.13430038 -3.80455736 11.36718229 -7.125 11.5 C-8.40375 11.335 -9.6825 11.17 -11 11 C-11.66 10.01 -12.32 9.02 -13 8 C-11.7625 8.20625 -10.525 8.4125 -9.25 8.625 C-6.76108443 8.91574058 -5.03454674 9.00708651 -2.5625 8.5 C-0.05000485 6.08800465 -0.24785137 3.34599352 0 0 Z " fill="#298ECF" transform="translate(123,144)"/>
<path d="M0 0 C0.99 0.66 1.98 1.32 3 2 C2.67 2.66 2.34 3.32 2 4 C1.67 3.67 1.34 3.34 1 3 C-1.33297433 2.95907063 -3.66705225 2.95758277 -6 3 C-6.99 5.31 -7.98 7.62 -9 10 C-9.33 10 -9.66 10 -10 10 C-10.48468708 3.57789614 -10.48468708 3.57789614 -8.375 1.0625 C-5.36577208 -0.28373354 -3.26606297 -0.34745351 0 0 Z " fill="#C860AA" transform="translate(102,105)"/>
<path d="M0 0 C0.33 1.32 0.66 2.64 1 4 C2.32 4 3.64 4 5 4 C4.67 4.66 4.34 5.32 4 6 C2.33499557 6.34153937 0.66821323 6.67449498 -1 7 C-1.66 7.66 -2.32 8.32 -3 9 C-3.99 9 -4.98 9 -6 9 C-6 8.34 -6 7.68 -6 7 C-5.34 7 -4.68 7 -4 7 C-3.67 5.68 -3.34 4.36 -3 3 C-2.34 3 -1.68 3 -1 3 C-0.67 2.01 -0.34 1.02 0 0 Z " fill="#402A68" transform="translate(113,68)"/>
<path d="M0 0 C2.91517292 1.07401108 4.77810176 1.77810176 7 4 C5.515 6.475 5.515 6.475 4 9 C3.34 8.67 2.68 8.34 2 8 C0 1.77777778 0 1.77777778 0 0 Z " fill="#342867" transform="translate(167,22)"/>
<path d="M0 0 C3.46941546 0.45822468 6.67395049 0.89131683 10 2 C10 2.66 10 3.32 10 4 C3.375 5.25 3.375 5.25 0 3 C0 2.01 0 1.02 0 0 Z " fill="#EFC916" transform="translate(117,87)"/>
<path d="M0 0 C0.33 0.99 0.66 1.98 1 3 C-0.5625 5.6875 -0.5625 5.6875 -3 8 C-6.25 8.3125 -6.25 8.3125 -9 8 C-7.75 6 -7.75 6 -6 4 C-4.68 4 -3.36 4 -2 4 C-2 3.34 -2 2.68 -2 2 C-1.34 2 -0.68 2 0 2 C0 1.34 0 0.68 0 0 Z " fill="#059BD2" transform="translate(132,130)"/>
<path d="M0 0 C0.66 0 1.32 0 2 0 C2 1.65 2 3.3 2 5 C-0.31 6.32 -2.62 7.64 -5 9 C-5.33 7.68 -5.66 6.36 -6 5 C-5.195625 4.54625 -4.39125 4.0925 -3.5625 3.625 C-0.91143428 2.25274335 -0.91143428 2.25274335 0 0 Z " fill="#451F63" transform="translate(87,117)"/>
<path d="M0 0 C2.475 0.99 2.475 0.99 5 2 C5 2.66 5 3.32 5 4 C6.65 4 8.3 4 10 4 C10 4.66 10 5.32 10 6 C6.30458414 6.95024979 3.69541586 6.95024979 0 6 C0 4.02 0 2.04 0 0 Z " fill="#DC549C" transform="translate(91,110)"/>
<path d="M0 0 C1.32 0 2.64 0 4 0 C5.32630565 4.14470514 5.98384711 9.03230578 4 13 C3.01 12.67 2.02 12.34 1 12 C1.33 11.67 1.66 11.34 2 11 C2.23961213 6.76685233 2.32488647 3.63263511 0 0 Z " fill="#712978" transform="translate(104,106)"/>
<path d="M0 0 C0.99 0 1.98 0 3 0 C3 1.65 3 3.3 3 5 C2.01 5 1.02 5 0 5 C0 5.99 0 6.98 0 8 C1.65 8.33 3.3 8.66 5 9 C5 9.33 5 9.66 5 10 C2.69 10 0.38 10 -2 10 C-1.34 6.7 -0.68 3.4 0 0 Z " fill="#303680" transform="translate(145,112)"/>
<path d="M0 0 C0.33 0 0.66 0 1 0 C1.05395478 1.62463842 1.09277195 3.24978541 1.125 4.875 C1.14820313 5.77992187 1.17140625 6.68484375 1.1953125 7.6171875 C1 10 1 10 -1 12 C-2.87643761 10.12356239 -2.17984987 7.50194299 -2.23046875 5.0078125 C-2 3 -2 3 0 0 Z " fill="#2A91CF" transform="translate(131,107)"/>
<path d="M0 0 C-0.33 1.32 -0.66 2.64 -1 4 C-1.66 4 -2.32 4 -3 4 C-4.155 4.061875 -5.31 4.12375 -6.5 4.1875 C-7.655 4.125625 -8.81 4.06375 -10 4 C-10.66 3.01 -11.32 2.02 -12 1 C-10.56274129 0.83126522 -9.12518162 0.66509263 -7.6875 0.5 C-6.88699219 0.4071875 -6.08648437 0.314375 -5.26171875 0.21875 C-3 0 -3 0 0 0 Z " fill="#F3DA2E" transform="translate(110,65)"/>
<path d="M0 0 C1.875 1.125 1.875 1.125 3 3 C3.1875 6.6875 3.1875 6.6875 3 10 C2.67 10 2.34 10 2 10 C1.896875 9.05125 1.79375 8.1025 1.6875 7.125 C1.31460705 3.70892499 1.31460705 3.70892499 -2 2 C-4.05709596 1.75944532 -4.05709596 1.75944532 -6.1875 1.875 C-7.445625 1.91625 -8.70375 1.9575 -10 2 C-7.88538617 -2.22922765 -3.89903349 -0.97475837 0 0 Z " fill="#3E99D6" transform="translate(162,140)"/>
<path d="M0 0 C0.99 0 1.98 0 3 0 C2.66260373 2.530472 2.3938922 3.6818563 0.375 5.3125 C-3.0002427 6.28954394 -5.60942542 5.76767726 -9 5 C-9.33 4.34 -9.66 3.68 -10 3 C-6.7 3.33 -3.4 3.66 0 4 C0 2.68 0 1.36 0 0 Z " fill="#EAD147" transform="translate(127,68)"/>
<path d="M0 0 C1.66666667 1 3.33333333 2 5 3 C5.66 2.67 6.32 2.34 7 2 C7.66 4.31 8.32 6.62 9 9 C5.59959266 7.86653089 4.46270748 6.53733498 2 4 C0.68441297 2.97676564 -0.64377755 1.96873032 -2 1 C-1.34 0.67 -0.68 0.34 0 0 Z " fill="#4A2E85" transform="translate(127,55)"/>
<path d="M0 0 C0.7425 0.680625 0.7425 0.680625 1.5 1.375 C4.89475949 3.58159367 8.04883498 4.14391425 12 5 C11.67 5.66 11.34 6.32 11 7 C8.03 6.67 5.06 6.34 2 6 C1.34 4.02 0.68 2.04 0 0 Z " fill="#1F337B" transform="translate(150,152)"/>
<path d="M0 0 C-2 1 -4 2 -6 3 C-6.33 3.99 -6.66 4.98 -7 6 C-7.66 6 -8.32 6 -9 6 C-8.67 7.65 -8.34 9.3 -8 11 C-8.66 10.67 -9.32 10.34 -10 10 C-10.48468708 3.57789614 -10.48468708 3.57789614 -8.375 1.0625 C-5.43969547 -0.25066255 -3.18136394 -0.21691118 0 0 Z " fill="#2A9CD5" transform="translate(128,125)"/>
<path d="M0 0 C1.65 0.33 3.3 0.66 5 1 C4.25 3.4375 4.25 3.4375 3 6 C0.875 6.8125 0.875 6.8125 -1 7 C-0.67 4.69 -0.34 2.38 0 0 Z " fill="#322863" transform="translate(195,178)"/>
<path d="M0 0 C3.63 0.66 7.26 1.32 11 2 C11 2.66 11 3.32 11 4 C7.7 4 4.4 4 1 4 C0.67 2.68 0.34 1.36 0 0 Z " fill="#402871" transform="translate(109,156)"/>
<path d="M0 0 C0.66 1.32 1.32 2.64 2 4 C1.34 4.66 0.68 5.32 0 6 C-0.70710678 7.64991582 -1.37943989 9.31562256 -2 11 C-2.66 10.67 -3.32 10.34 -4 10 C-3.52449439 8.51965236 -3.04448784 7.04074979 -2.5625 5.5625 C-2.29566406 4.73878906 -2.02882813 3.91507812 -1.75390625 3.06640625 C-1 1 -1 1 0 0 Z " fill="#382F61" transform="translate(18,70)"/>
<path d="M0 0 C0.99 0.33 1.98 0.66 3 1 C3 1.66 3 2.32 3 3 C2.071875 3.4125 1.14375 3.825 0.1875 4.25 C-2.88054681 5.93441786 -4.19040465 7.08454083 -6 10 C-6 6 -6 6 -4.6875 4.296875 C-4.130625 3.78640625 -3.57375 3.2759375 -3 2.75 C-2.1646875 1.96882813 -2.1646875 1.96882813 -1.3125 1.171875 C-0.879375 0.78515625 -0.44625 0.3984375 0 0 Z " fill="#342C5A" transform="translate(43,35)"/>
<path d="M0 0 C0.928125 0.20625 1.85625 0.4125 2.8125 0.625 C2.4825 1.285 2.1525 1.945 1.8125 2.625 C-0.25390625 3.2578125 -0.25390625 3.2578125 -2.75 3.75 C-3.57628906 3.91757812 -4.40257812 4.08515625 -5.25390625 4.2578125 C-5.89199219 4.37898438 -6.53007813 4.50015625 -7.1875 4.625 C-5.78075725 0.40477175 -4.42930454 -0.52109465 0 0 Z " fill="#372E64" transform="translate(67.1875,20.375)"/>
<path d="M0 0 C3.26115591 0.48570407 3.83013037 1.07999747 5.9375 3.4375 C5.33421875 3.42589844 4.7309375 3.41429688 4.109375 3.40234375 C3.31015625 3.39332031 2.5109375 3.38429688 1.6875 3.375 C0.89859375 3.36339844 0.1096875 3.35179688 -0.703125 3.33984375 C-2.96941002 3.43364694 -4.8913895 3.80508937 -7.0625 4.4375 C-4.76482915 1.60959742 -3.67301925 0.52471704 0 0 Z " fill="#3996D0" transform="translate(147.0625,122.5625)"/>
<path d="M0 0 C2.375 0.3125 2.375 0.3125 5 1 C7 4 7 4 7 7 C3.63983107 5.87994369 2.30935087 4.62788203 0 2 C0 1.34 0 0.68 0 0 Z " fill="#2E3C89" transform="translate(150,122)"/>
<path d="M0 0 C0.66 0.66 1.32 1.32 2 2 C2.66 1.67 3.32 1.34 4 1 C4.33 3.31 4.66 5.62 5 8 C4.01 7.34 3.02 6.68 2 6 C1.01 6.99 0.02 7.98 -1 9 C-0.67 6.03 -0.34 3.06 0 0 Z " fill="#684B38" transform="translate(111,83)"/>
<path d="M0 0 C-5.10334017 1.905247 -9.46342706 3.42589023 -15 3 C-13.68 2.67 -12.36 2.34 -11 2 C-11 1.34 -11 0.68 -11 0 C-3.375 -1.125 -3.375 -1.125 0 0 Z " fill="#241A4C" transform="translate(148,217)"/>
<path d="M0 0 C1.79093191 -0.08086147 3.58289628 -0.13912702 5.375 -0.1875 C6.87160156 -0.23970703 6.87160156 -0.23970703 8.3984375 -0.29296875 C9.25695312 -0.19628906 10.11546875 -0.09960938 11 0 C11.66 0.99 12.32 1.98 13 3 C12.67 3.99 12.34 4.98 12 6 C11.505 5.34 11.01 4.68 10.5 4 C6.89659788 1.1172783 4.53014958 1.69799003 0 2 C0 1.34 0 0.68 0 0 Z " fill="#254188" transform="translate(132,105)"/>
<path d="M0 0 C0.66 0.33 1.32 0.66 2 1 C0.35 4.3 -1.3 7.6 -3 11 C-3.66 10.01 -4.32 9.02 -5 8 C-2.25 2.25 -2.25 2.25 0 0 Z " fill="#EEEBF6" transform="translate(21,60)"/>
<path d="M0 0 C0.598125 0.20625 1.19625 0.4125 1.8125 0.625 C1.8125 1.285 1.8125 1.945 1.8125 2.625 C2.4725 2.955 3.1325 3.285 3.8125 3.625 C3.4825 4.285 3.1525 4.945 2.8125 5.625 C1.8225 5.295 0.8325 4.965 -0.1875 4.625 C-0.1875 3.965 -0.1875 3.305 -0.1875 2.625 C-1.8375 2.295 -3.4875 1.965 -5.1875 1.625 C-2.1875 -0.375 -2.1875 -0.375 0 0 Z " fill="#4E3A83" transform="translate(68.1875,57.375)"/>
<path d="M0 0 C0.99 0.33 1.98 0.66 3 1 C3.33 2.65 3.66 4.3 4 6 C1 6 1 6 -2 4 C-1.34 2.68 -0.68 1.36 0 0 Z M1 1 C0.67 1.66 0.34 2.32 0 3 C0.66 3 1.32 3 2 3 C1.67 2.34 1.34 1.68 1 1 Z " fill="#2C2166" transform="translate(178,193)"/>
<path d="M0 0 C0 0.99 0 1.98 0 3 C-2.5 5.1875 -2.5 5.1875 -5 7 C-5.33 5.02 -5.66 3.04 -6 1 C-4.02 0.67 -2.04 0.34 0 0 Z " fill="#231853" transform="translate(195,184)"/>
<path d="M0 0 C0.99 0 1.98 0 3 0 C2.125 4.75 2.125 4.75 1 7 C0.34 7 -0.32 7 -1 7 C-1.04254356 5.00045254 -1.04080783 2.99958364 -1 1 C-0.67 0.67 -0.34 0.34 0 0 Z " fill="#3A347A" transform="translate(105,131)"/>
<path d="M0 0 C0 3 0 3 -1 5 C-1.66 5 -2.32 5 -3 5 C-3.33 5.99 -3.66 6.98 -4 8 C-4.66 6.68 -5.32 5.36 -6 4 C-4.02 2.68 -2.04 1.36 0 0 Z " fill="#342C72" transform="translate(105,121)"/>
<path d="M0 0 C0.33 0 0.66 0 1 0 C1.33 3.63 1.66 7.26 2 11 C1.34 11 0.68 11 0 11 C0 12.65 0 14.3 0 16 C-0.33 16 -0.66 16 -1 16 C-0.67 10.72 -0.34 5.44 0 0 Z " fill="#443877" transform="translate(9,112)"/>
<path d="M0 0 C2 2 2 2 2.375 4.9375 C2 8 2 8 0 9.875 C-0.99 10.431875 -0.99 10.431875 -2 11 C-2.66 10.67 -3.32 10.34 -4 10 C-3.525625 9.46375 -3.05125 8.9275 -2.5625 8.375 C-0.71813924 5.57157164 -0.37543153 3.30379742 0 0 Z " fill="#513445" transform="translate(131,82)"/>
<path d="M0 0 C3.375 -0.1875 3.375 -0.1875 7 0 C7.66 0.99 8.32 1.98 9 3 C5.7 2.67 2.4 2.34 -1 2 C-0.67 1.34 -0.34 0.68 0 0 Z " fill="#EDD56F" transform="translate(100,58)"/>
<path d="M0 0 C0.625 1.8125 0.625 1.8125 1 4 C0.01 5.485 0.01 5.485 -1 7 C-1.66 7 -2.32 7 -3 7 C-3.66 5.02 -4.32 3.04 -5 1 C-3.35 0.67 -1.7 0.34 0 0 Z " fill="#4A337C" transform="translate(115,56)"/>
<path d="M0 0 C1.98 0 3.96 0 6 0 C5.01 1.485 5.01 1.485 4 3 C4.33 3.66 4.66 4.32 5 5 C3.02 5 1.04 5 -1 5 C-0.67 3.35 -0.34 1.7 0 0 Z " fill="#382D66" transform="translate(75,15)"/>
<path d="M0 0 C2.97 0 5.94 0 9 0 C6.44931155 2.35448165 5.28982642 2.98327924 1.75 3.1875 C0.8425 3.125625 -0.065 3.06375 -1 3 C-0.67 2.01 -0.34 1.02 0 0 Z " fill="#33266D" transform="translate(122,9)"/>
<path d="M0 0 C0.33 0.66 0.66 1.32 1 2 C-0.25 4.625 -0.25 4.625 -2 7 C-2.99 7 -3.98 7 -5 7 C-5 5.68 -5 4.36 -5 3 C-2.5 1.25 -2.5 1.25 0 0 Z " fill="#079ED4" transform="translate(143,147)"/>
<path d="M0 0 C3.12290635 0.48578543 5.99580359 0.9986012 9 2 C9 3.32 9 4.64 9 6 C8.34 6 7.68 6 7 6 C6.67 5.34 6.34 4.68 6 4 C4.67532254 3.3162955 3.34136367 2.65035814 2 2 C1.34 1.34 0.68 0.68 0 0 Z " fill="#27A6DB" transform="translate(114,141)"/>
<path d="M0 0 C0 1.65 0 3.3 0 5 C-0.99 5.495 -0.99 5.495 -2 6 C-2 5.34 -2 4.68 -2 4 C-2.99 4 -3.98 4 -5 4 C-5 3.01 -5 2.02 -5 1 C-3 0 -3 0 0 0 Z " fill="#13AFE4" transform="translate(142,110)"/>
<path d="M0 0 C1.67542976 0.28604898 3.34385343 0.61781233 5 1 C5 4 5 4 4 6 C1.53721199 4.768606 0.57502313 3.21935077 -1 1 C-0.67 0.67 -0.34 0.34 0 0 Z " fill="#493080" transform="translate(110,76)"/>
<path d="M0 0 C0.99 0.33 1.98 0.66 3 1 C2.67 2.32 2.34 3.64 2 5 C1.34 5 0.68 5 0 5 C0.33 6.65 0.66 8.3 1 10 C0.34 9.67 -0.32 9.34 -1 9 C-1.09765625 2.84765625 -1.09765625 2.84765625 -1 1 C-0.67 0.67 -0.34 0.34 0 0 Z " fill="#E8D05D" transform="translate(116,61)"/>
<path d="M0 0 C0.99 0.33 1.98 0.66 3 1 C1.75453595 4.73639216 0.36595047 5.18756513 -3 7 C-2.25 2.25 -2.25 2.25 0 0 Z " fill="#332A61" transform="translate(29,51)"/>
<path d="M0 0 C-0.33 1.32 -0.66 2.64 -1 4 C-1.66 4 -2.32 4 -3 4 C-3.33 4.66 -3.66 5.32 -4 6 C-5.32 5.01 -6.64 4.02 -8 3 C-2.25 0 -2.25 0 0 0 Z " fill="#483F71" transform="translate(74,16)"/>
<path d="M0 0 C0.66 0 1.32 0 2 0 C2.3125 2.3125 2.3125 2.3125 2 5 C-0.5 6.8125 -0.5 6.8125 -3 8 C-2.690625 7.236875 -2.38125 6.47375 -2.0625 5.6875 C-1.32106407 3.81210323 -0.63771783 1.91315348 0 0 Z " fill="#2EA4E1" transform="translate(152,126)"/>
<path d="M0 0 C0.66 0.33 1.32 0.66 2 1 C2.28571429 8.42857143 2.28571429 8.42857143 0 12 C-0.66 12 -1.32 12 -2 12 C-1.67 11.319375 -1.34 10.63875 -1 9.9375 C0.17307315 6.49159762 0.14180493 3.61602578 0 0 Z " fill="#C0499B" transform="translate(86,108)"/>
<path d="M0 0 C1.65 0 3.3 0 5 0 C5 0.99 5 1.98 5 3 C2.03 3 -0.94 3 -4 3 C-2.68 2.67 -1.36 2.34 0 2 C0 1.34 0 0.68 0 0 Z " fill="#472E6D" transform="translate(120,54)"/>
<path d="M0 0 C0.625 1.8125 0.625 1.8125 1 4 C-1 7 -1 7 -4 8 C-4 7.01 -4 6.02 -4 5 C-3.34 5 -2.68 5 -2 5 C-2 4.01 -2 3.02 -2 2 C-1.34 2 -0.68 2 0 2 C0 1.34 0 0.68 0 0 Z " fill="#2E2558" transform="translate(216,146)"/>
<path d="M0 0 C2.83374881 3.20336822 3.5205537 5.78087253 4 10 C2 8.375 2 8.375 0 6 C-0.25 2.75 -0.25 2.75 0 0 Z " fill="#2789C6" transform="translate(139,128)"/>
<path d="M0 0 C-0.33 2.64 -0.66 5.28 -1 8 C-1.66 8 -2.32 8 -3 8 C-3 5.69 -3 3.38 -3 1 C-1 0 -1 0 0 0 Z " fill="#33276C" transform="translate(12,122)"/>
<path d="M0 0 C0.99 0.33 1.98 0.66 3 1 C3.33 3.64 3.66 6.28 4 9 C1.49701566 6.06171403 0.53069061 3.82097239 0 0 Z " fill="#31275A" transform="translate(214,79)"/>
<path d="M0 0 C1.9375 0.8125 1.9375 0.8125 4 2 C4.33 2.99 4.66 3.98 5 5 C0.25 4.25 0.25 4.25 -2 2 C-1.34 2 -0.68 2 0 2 C0 1.34 0 0.68 0 0 Z " fill="#FAD53E" transform="translate(118,64)"/>
<path d="M0 0 C0.99 0.33 1.98 0.66 3 1 C5.14255793 0.61067144 5.14255793 0.61067144 7 0 C5.02579865 2.52259061 4.03254358 2.9929808 0.8125 3.6875 C-0.5796875 3.8421875 -0.5796875 3.8421875 -2 4 C-2 3.34 -2 2.68 -2 2 C-1.34 2 -0.68 2 0 2 C0 1.34 0 0.68 0 0 Z " fill="#251E4E" transform="translate(151,212)"/>
<path d="M0 0 C1.2065625 0.0309375 1.2065625 0.0309375 2.4375 0.0625 C2.1075 1.3825 1.7775 2.7025 1.4375 4.0625 C0.1175 4.3925 -1.2025 4.7225 -2.5625 5.0625 C-2.2325 4.0725 -1.9025 3.0825 -1.5625 2.0625 C-2.2225 1.7325 -2.8825 1.4025 -3.5625 1.0625 C-2.5625 0.0625 -2.5625 0.0625 0 0 Z " fill="#392E70" transform="translate(74.5625,208.9375)"/>
<path d="M0 0 C0.66 0.33 1.32 0.66 2 1 C1.67 2.65 1.34 4.3 1 6 C-0.32 6.33 -1.64 6.66 -3 7 C-2.01 4.69 -1.02 2.38 0 0 Z " fill="#EFECF6" transform="translate(212,160)"/>
<path d="M0 0 C0.66 0 1.32 0 2 0 C2 0.66 2 1.32 2 2 C2.66 2.33 3.32 2.66 4 3 C3.34 3 2.68 3 2 3 C2.33 3.99 2.66 4.98 3 6 C1.68 6 0.36 6 -1 6 C-1.33 5.34 -1.66 4.68 -2 4 C-1.0625 1.875 -1.0625 1.875 0 0 Z " fill="#48347E" transform="translate(58,161)"/>
<path d="M0 0 C0.99 0.33 1.98 0.66 3 1 C2.67 3.64 2.34 6.28 2 9 C-0.29013653 5.5647952 -0.17842973 4.014669 0 0 Z " fill="#302859" transform="translate(10,132)"/>
<path d="M0 0 C2.64 0 5.28 0 8 0 C6.515 1.98 6.515 1.98 5 4 C2.525 3.01 2.525 3.01 0 2 C0 1.34 0 0.68 0 0 Z " fill="#342A70" transform="translate(97,95)"/>
<path d="M0 0 C0.99 0.33 1.98 0.66 3 1 C3 3.64 3 6.28 3 9 C2.01 9.495 2.01 9.495 1 10 C1.33 8.02 1.66 6.04 2 4 C1.34 4 0.68 4 0 4 C0 2.68 0 1.36 0 0 Z " fill="#F4D95E" transform="translate(108,80)"/>
<path d="M0 0 C0.33 0.66 0.66 1.32 1 2 C-0.98 4.97 -0.98 4.97 -3 8 C-3.66 7.67 -4.32 7.34 -5 7 C-3.70700306 4.11562221 -2.34058637 2.12780579 0 0 Z " fill="#E6E2F4" transform="translate(191,190)"/>
<path d="M0 0 C0.33 0.66 0.66 1.32 1 2 C1.66 2 2.32 2 3 2 C3 3.98 3 5.96 3 8 C2.01 7.34 1.02 6.68 0 6 C-0.1875 2.875 -0.1875 2.875 0 0 Z " fill="#2375B6" transform="translate(128,145)"/>
<path d="M0 0 C0.66 0 1.32 0 2 0 C2 2.31 2 4.62 2 7 C1.01 7.33 0.02 7.66 -1 8 C-0.67 5.36 -0.34 2.72 0 0 Z " fill="#362A66" transform="translate(216,120)"/>
<path d="M0 0 C0.33 0 0.66 0 1 0 C1.98248524 4.0527516 2.08159574 7.83861737 2 12 C0.4375 10.5 0.4375 10.5 -1 8 C-0.96823234 5.22562457 -0.50364148 2.74713533 0 0 Z " fill="#453979" transform="translate(220,118)"/>
<path d="M0 0 C0.804375 0.4640625 0.804375 0.4640625 1.625 0.9375 C4.3984957 2.17827439 7.00042837 2.5909675 10 3 C8.3125 4.125 8.3125 4.125 6 5 C3.3125 4.3125 3.3125 4.3125 1 3 C0.67 2.01 0.34 1.02 0 0 Z " fill="#C44798" transform="translate(92,116)"/>
<path d="M0 0 C1.98 0.495 1.98 0.495 4 1 C3.34 2.32 2.68 3.64 2 5 C1.01 4.67 0.02 4.34 -1 4 C-0.67 2.68 -0.34 1.36 0 0 Z " fill="#E45A93" transform="translate(96,110)"/>
</svg>
